<svg width="100" height="100" viewBox="0 0 100 100" fill="none" xmlns="http://www.w3.org/2000/svg">
<path fill-rule="evenodd" clip-rule="evenodd" d="M71.8899 1.64001L78.8899 5.84001C80.7799 7.00001 81.8599 9.43001 81.8599 12.59V60.01L81.5599 66.59C81.5406 67.4397 81.3354 68.2748 80.9588 69.0367C80.5822 69.7985 80.0432 70.4687 79.3799 71L74.0899 74.82L73.9999 74.88L61.2299 82.27V95.57C61.2299 95.8352 61.1246 96.0896 60.937 96.2771C60.7495 96.4647 60.4951 96.57 60.2299 96.57C59.9647 96.57 59.7104 96.4647 59.5228 96.2771C59.3353 96.0896 59.2299 95.8352 59.2299 95.57V83.42L57.3299 84.52V93.22C57.3299 93.4852 57.2246 93.7396 57.037 93.9271C56.8495 94.1147 56.5951 94.22 56.3299 94.22C56.0647 94.22 55.8104 94.1147 55.6228 93.9271C55.4353 93.7396 55.3299 93.4852 55.3299 93.22V85.67L33.9999 98C32.9827 98.633 31.8173 98.9882 30.6199 99.03C29.7579 99.0307 28.9116 98.7993 28.1699 98.36L21.1699 94.16C19.2499 93.03 18.1699 90.57 18.1699 87.41V39.99C18.1699 34.19 21.6099 27.66 25.9999 25.12L65.9999 2.00001C68.1599 0.770013 70.2399 0.650013 71.8899 1.64001ZM58.4099 81.58L72.9999 73.17L75.4699 71.3L74.4699 58.59C74.4399 58.25 74.3199 57.99 74.1999 57.92C74.0799 57.85 73.7899 57.86 73.3699 58.11L61.2999 65.11C60.7202 65.5026 60.2323 66.016 59.8698 66.615C59.5073 67.2139 59.2787 67.8843 59.1999 68.58L58.4099 81.58ZM79.2044 68.1079C79.4369 67.6205 79.5648 67.0898 79.5799 66.55L79.8799 60V12.58C79.8799 10.18 79.1499 8.34001 77.8799 7.58001L70.8799 3.39001C70.4488 3.12965 69.9536 2.9946 69.4499 3.00001C68.5852 3.02705 67.7418 3.27491 66.9999 3.72001L26.9899 26.87C23.2299 29 20.1599 34.93 20.1599 40V87.45C20.1599 89.85 20.8899 91.69 22.1599 92.45L29.1599 96.64C29.7728 96.9324 30.4535 97.0533 31.1296 96.9899C31.8057 96.9265 32.452 96.6812 32.9999 96.28L56.3499 82.81L57.2299 68.53C57.3309 67.5071 57.6612 66.52 58.1961 65.6423C58.7311 64.7645 59.457 64.0186 60.3199 63.46L72.3899 56.46C72.7941 56.1891 73.2611 56.0266 73.7462 55.9881C74.2312 55.9496 74.718 56.0363 75.1599 56.24C75.5611 56.4728 75.8942 56.8068 76.1258 57.2087C76.3575 57.6105 76.4796 58.0662 76.4799 58.53L77.3599 70.02L78.2299 69.38C78.6399 69.0286 78.9719 68.5953 79.2044 68.1079ZM74.4767 7.5721C74.3957 7.67674 74.2948 7.76439 74.1799 7.83005L73.9999 7.91005L34.0099 31.05C30.2399 33.19 27.1799 39.12 27.1799 44.19V91.61C27.1799 91.8053 27.1931 91.9927 27.206 92.1748C27.2181 92.3471 27.2299 92.5148 27.2299 92.68C27.255 92.9439 27.1743 93.2069 27.0055 93.4113C26.8368 93.6157 26.5938 93.7447 26.3299 93.77H26.2299C25.9796 93.7711 25.738 93.6781 25.5528 93.5097C25.3677 93.3412 25.2524 93.1094 25.2299 92.86C25.1899 92.46 25.1699 92.04 25.1699 91.6V44.19C25.1699 38.38 28.6099 31.85 32.9999 29.32L73.1799 6.08005C73.2948 6.01439 73.4215 5.972 73.5528 5.95531C73.6841 5.93862 73.8174 5.94795 73.9451 5.98278C74.0728 6.0176 74.1923 6.07723 74.297 6.15826C74.4016 6.23929 74.4893 6.34014 74.5549 6.45505C74.6206 6.56995 74.663 6.69667 74.6797 6.82796C74.6963 6.95924 74.687 7.09253 74.6522 7.22021C74.6174 7.34789 74.5577 7.46747 74.4767 7.5721ZM71.5601 62.39C72.1123 62.39 72.5601 62.8377 72.5601 63.39V68.17C72.5601 68.7223 72.1123 69.17 71.5601 69.17C71.0078 69.17 70.5601 68.7223 70.5601 68.17V63.39C70.5601 62.8377 71.0078 62.39 71.5601 62.39ZM68.46 65.78C68.46 65.2277 68.0122 64.78 67.46 64.78C66.9077 64.78 66.46 65.2277 66.46 65.78V70.55C66.46 71.1023 66.9077 71.55 67.46 71.55C68.0122 71.55 68.46 71.1023 68.46 70.55V65.78ZM64.3501 68.17C64.3501 67.6178 63.9024 67.17 63.3501 67.17C62.7978 67.17 62.3501 67.6178 62.3501 68.17V72.94C62.3501 73.4923 62.7978 73.94 63.3501 73.94C63.9024 73.94 64.3501 73.4923 64.3501 72.94V68.17ZM77.7901 15.94L38.7901 38.45C38.0324 38.9676 37.4111 39.6608 36.9793 40.4705C36.5474 41.2802 36.3178 42.1823 36.3101 43.1V91.71C36.3101 91.9752 36.4154 92.2295 36.603 92.4171C36.7905 92.6046 37.0448 92.71 37.3101 92.71C37.5753 92.71 37.8296 92.6046 38.0172 92.4171C38.2047 92.2295 38.3101 91.9752 38.3101 91.71V43.1C38.3214 42.5333 38.4603 41.9765 38.7166 41.4709C38.9728 40.9654 39.3397 40.5241 39.7901 40.18L78.7901 17.67C78.9046 17.6046 79.0052 17.5173 79.0859 17.4129C79.1665 17.3086 79.2258 17.1893 79.2602 17.062C79.2946 16.9346 79.3034 16.8017 79.2862 16.671C79.2691 16.5402 79.2262 16.4141 79.1601 16.3C79.0939 16.1862 79.0059 16.0866 78.9012 16.0069C78.7965 15.9272 78.6771 15.869 78.5498 15.8356C78.4225 15.8021 78.2899 15.7941 78.1595 15.812C78.0291 15.83 77.9036 15.8734 77.7901 15.94Z" fill="#28CDCD"/>
</svg>
