<svg width="100" height="100" viewBox="0 0 100 100" fill="none" xmlns="http://www.w3.org/2000/svg">
<path fill-rule="evenodd" clip-rule="evenodd" d="M86.4001 27.32L92.4701 31C95.1501 32.69 96.6301 36 96.6301 40.25C96.6301 48.89 90.5401 59.44 83.0501 63.77L32.8201 92.77C30.8704 93.996 28.6317 94.6859 26.3301 94.77C24.8641 94.7864 23.4229 94.3915 22.1701 93.63L7.63012 84.69C4.88012 83.01 3.37012 79.65 3.37012 75.25C3.37012 66.39 9.61012 55.58 17.2801 51.15C17.8908 50.8022 18.5219 50.4916 19.1701 50.22C19.2601 43.84 23.7701 36.16 29.2601 32.98C29.7953 32.6772 30.3498 32.4099 30.9201 32.18C33.9301 22 40.9301 12.55 48.8701 7.96001C54.3801 4.77001 59.5801 4.36001 63.5001 6.77001L78.0301 15.66C81.7701 17.97 83.8401 22.59 83.8401 28.66C83.8401 29.39 83.8001 30.15 83.7301 30.95C84.7722 30.4872 85.8722 30.1676 87.0001 30L85.4001 29.02C85.2643 28.9681 85.1415 28.8872 85.0402 28.783C84.9389 28.6788 84.8615 28.5537 84.8134 28.4166C84.7654 28.2794 84.7478 28.1334 84.7619 27.9887C84.776 27.844 84.8215 27.7042 84.8952 27.5789C84.9689 27.4536 85.0691 27.3459 85.1886 27.2633C85.3082 27.1806 85.4444 27.1251 85.5876 27.1004C85.7309 27.0758 85.8778 27.0826 86.0181 27.1206C86.1584 27.1585 86.2888 27.2266 86.4001 27.32ZM31.8201 91L82.0501 62V62.07C89.0001 58.06 94.6301 48.29 94.6301 40.32C94.6301 36.73 93.5801 34.12 91.4201 32.79C89.2601 31.46 86.2901 31.76 83.0501 33.63C82.8912 33.7293 82.7075 33.782 82.5201 33.782C82.3327 33.782 82.149 33.7293 81.9901 33.63C81.8295 33.5227 81.7034 33.3711 81.6271 33.1936C81.5508 33.0162 81.5275 32.8204 81.5601 32.63C81.7504 31.3452 81.8506 30.0488 81.8601 28.75C81.8601 23.4 80.2701 19.47 77.0001 17.46C73.7301 15.45 69.2601 15.89 64.4201 18.68C63.7301 19.07 63.0401 19.52 62.3501 20C62.1273 20.1525 61.8531 20.2103 61.5877 20.1606C61.3224 20.1109 61.0876 19.9578 60.9351 19.735C60.7826 19.5122 60.7249 19.238 60.7746 18.9726C60.8243 18.7073 60.9773 18.4725 61.2001 18.32C61.9155 17.8092 62.6564 17.3353 63.4201 16.9C65.9416 15.3467 68.7974 14.4177 71.7501 14.19L62.4601 8.48001C59.1801 6.47001 54.7101 6.90001 49.8701 9.69001C42.3501 14 35.4501 23.49 32.7201 33.19C32.6768 33.3469 32.5959 33.4908 32.4844 33.6093C32.3728 33.7278 32.2341 33.8173 32.0801 33.87C31.4532 34.08 30.85 34.3549 30.2801 34.69C25.2701 37.58 21.1901 44.65 21.1901 50.44V50.64V50.83C21.2028 51.0456 21.1454 51.2595 21.0265 51.4398C20.9075 51.6201 20.7334 51.757 20.5301 51.83C19.751 52.1179 18.9982 52.4726 18.2801 52.89C11.1601 57 5.37012 67 5.37012 75.26C5.37012 78.94 6.54012 81.69 8.67012 83L18.7901 89.18C18.2246 87.5746 17.947 85.8819 17.9701 84.18V84.06L17.4101 84.36C17.2701 84.4294 17.1164 84.467 16.9601 84.47C16.7317 84.4757 16.5081 84.4029 16.3268 84.2638C16.1455 84.1247 16.0172 83.9277 15.9635 83.7056C15.9097 83.4835 15.9336 83.2497 16.0312 83.043C16.1289 82.8364 16.2944 82.6695 16.5001 82.57C16.7801 82.44 17.0601 82.29 17.3301 82.13L18.1401 81.66C19.1601 73.37 24.9201 64.09 31.8701 60.09C32.1201 59.95 32.3801 59.81 32.6301 59.69L22.3101 53.35C22.1779 53.2955 22.059 53.2133 21.9613 53.109C21.8636 53.0046 21.7894 52.8806 21.7437 52.7451C21.698 52.6096 21.6819 52.466 21.6964 52.3237C21.7109 52.1815 21.7558 52.0441 21.828 51.9207C21.9001 51.7973 21.9979 51.6908 22.1147 51.6083C22.2316 51.5259 22.3647 51.4695 22.5052 51.4429C22.6456 51.4163 22.7902 51.4202 22.929 51.4542C23.0679 51.4882 23.1978 51.5515 23.3101 51.64L33.8301 58.07C34.3601 51.92 38.6401 44.92 43.8301 41.92L44.1601 41.74L34.1601 35.58C34.0243 35.5281 33.9015 35.4472 33.8002 35.343C33.6989 35.2388 33.6215 35.1137 33.5734 34.9766C33.5254 34.8394 33.5078 34.6934 33.5219 34.5487C33.5361 34.404 33.5815 34.2642 33.6552 34.1389C33.7289 34.0136 33.8291 33.9059 33.9486 33.8233C34.0682 33.7406 34.2044 33.6851 34.3476 33.6604C34.4909 33.6358 34.6378 33.6426 34.7781 33.6806C34.9184 33.7185 35.0488 33.7866 35.1601 33.88L45.5501 40.44C46.4528 37.6015 47.6318 34.8584 49.0701 32.25C49.2027 32.0179 49.4221 31.8481 49.68 31.7777C49.9378 31.7074 50.2131 31.7424 50.4451 31.875C50.6772 32.0076 50.8471 32.227 50.9174 32.4848C50.9877 32.7427 50.9527 33.0179 50.8201 33.25C49.2369 36.0988 47.9822 39.1181 47.0801 42.25C47.0301 42.28 47.0301 42.34 47.0301 42.34C47.0147 42.395 46.9946 42.4485 46.9701 42.5C46.9366 42.5491 46.8998 42.5958 46.8601 42.64C46.7581 42.7417 46.6353 42.8202 46.5001 42.87C45.8791 43.0867 45.2798 43.3613 44.7101 43.69C39.6901 46.59 35.6101 53.66 35.6101 59.45C35.6049 59.5132 35.6049 59.5768 35.6101 59.64V59.84C35.6148 59.8765 35.6148 59.9135 35.6101 59.95C35.615 59.9899 35.615 60.0302 35.6101 60.07C35.5891 60.1609 35.5554 60.2484 35.5101 60.33V60.39C35.4994 60.417 35.4822 60.4411 35.4601 60.46C35.4214 60.5169 35.3742 60.5675 35.3201 60.61L35.2401 60.67C35.1868 60.7059 35.1298 60.7361 35.0701 60.76C34.2937 61.0304 33.5411 61.3648 32.8201 61.76C25.7101 65.87 19.9101 75.9 19.9101 84.12C19.9101 87.81 21.0001 90.51 23.2201 91.87C25.4401 93.23 28.4901 92.93 31.8201 91ZM55.8185 25.9083C55.6873 25.9688 55.5445 26 55.4001 26C55.1627 25.9921 54.9358 25.9 54.7601 25.74C54.6603 25.6547 54.5783 25.5505 54.5187 25.4334C54.4592 25.3164 54.4233 25.1887 54.4131 25.0578C54.4028 24.9269 54.4185 24.7952 54.4592 24.6703C54.4999 24.5455 54.5647 24.4298 54.6501 24.33C55.2401 23.65 55.8401 23 56.4401 22.38C56.5331 22.2863 56.6437 22.2119 56.7655 22.1611C56.8874 22.1104 57.0181 22.0842 57.1501 22.0842C57.2821 22.0842 57.4128 22.1104 57.5347 22.1611C57.6565 22.2119 57.7671 22.2863 57.8601 22.38C58.0464 22.5674 58.1509 22.8208 58.1509 23.085C58.1509 23.3492 58.0464 23.6027 57.8601 23.79C57.2901 24.38 56.7101 25 56.1601 25.65C56.0662 25.7598 55.9497 25.8479 55.8185 25.9083ZM79.9201 38.3C79.6708 38.2099 79.3959 38.2225 79.1559 38.335C78.9159 38.4475 78.7303 38.6507 78.6401 38.9C78.3801 39.64 78.0701 40.38 77.7401 41.11C77.6846 41.2294 77.6533 41.3587 77.6479 41.4902C77.6426 41.6218 77.6632 41.7532 77.7087 41.8768C77.7543 42.0004 77.8238 42.1137 77.9132 42.2104C78.0027 42.307 78.1104 42.385 78.2301 42.44C78.3625 42.4983 78.5054 42.5289 78.6501 42.53C78.8424 42.5296 79.0306 42.4737 79.192 42.369C79.3534 42.2644 79.4812 42.1154 79.5601 41.94C79.9101 41.17 80.2401 40.37 80.5601 39.58C80.6038 39.454 80.6218 39.3205 80.6132 39.1875C80.6045 39.0544 80.5693 38.9244 80.5097 38.8052C80.4501 38.6859 80.3672 38.5798 80.2659 38.493C80.1647 38.4062 80.0471 38.3406 79.9201 38.3ZM71.1202 50.4301C72.5021 49.1397 73.7455 47.7086 74.8302 46.1601H74.8502C74.9263 46.053 75.0228 45.9621 75.1342 45.8923C75.2455 45.8226 75.3695 45.7755 75.499 45.7536C75.6285 45.7318 75.7611 45.7357 75.8891 45.7651C76.0172 45.7946 76.1381 45.8489 76.2452 45.9251C76.3522 46.0012 76.4432 46.0977 76.5129 46.2091C76.5826 46.3204 76.6298 46.4444 76.6516 46.5739C76.6734 46.7034 76.6695 46.836 76.6401 46.964C76.6107 47.092 76.5563 47.213 76.4802 47.3201C75.31 48.9788 73.9694 50.5105 72.4802 51.8901C72.3865 51.9902 72.2732 52.0699 72.1474 52.1244C72.0216 52.1789 71.886 52.2069 71.7489 52.2068C71.6118 52.2066 71.4762 52.1783 71.3505 52.1235C71.2248 52.0687 71.1117 51.9887 71.0183 51.8884C70.9248 51.7881 70.853 51.6696 70.8073 51.5404C70.7615 51.4111 70.7429 51.2739 70.7524 51.1371C70.762 51.0003 70.7996 50.867 70.8628 50.7454C70.9261 50.6237 71.0137 50.5164 71.1202 50.4301ZM66.0001 54L53.7201 61.09C53.5025 61.2284 53.3467 61.4455 53.2853 61.696C53.2239 61.9465 53.2617 62.2111 53.3908 62.4344C53.5199 62.6577 53.7303 62.8225 53.978 62.8943C54.2257 62.9662 54.4916 62.9396 54.7201 62.82L67.0001 55.74C67.1144 55.6744 67.2146 55.5868 67.295 55.4825C67.3754 55.3781 67.4345 55.2589 67.4689 55.1317C67.5032 55.0044 67.5122 54.8717 67.4952 54.741C67.4783 54.6103 67.4358 54.4843 67.3701 54.37C67.3045 54.2558 67.2169 54.1556 67.1126 54.0751C67.0082 53.9947 66.889 53.9356 66.7617 53.9013C66.6345 53.8669 66.5018 53.858 66.3711 53.8749C66.2404 53.8918 66.1144 53.9344 66.0001 54ZM44.0002 66.7199L48.7002 63.9999L48.7202 63.9899C48.834 63.9176 48.9613 63.869 49.0943 63.8471C49.2274 63.8252 49.3636 63.8305 49.4946 63.8626C49.6255 63.8947 49.7487 63.9529 49.8566 64.0338C49.9645 64.1147 50.0549 64.2167 50.1224 64.3334C50.1899 64.4502 50.2331 64.5794 50.2494 64.7133C50.2656 64.8472 50.2546 64.983 50.217 65.1125C50.1795 65.242 50.1161 65.3626 50.0307 65.467C49.9453 65.5714 49.8397 65.6574 49.7202 65.7199L44.9902 68.4499C44.8407 68.5346 44.672 68.5794 44.5002 68.5799C44.2819 68.5777 44.0704 68.5042 43.8979 68.3705C43.7254 68.2368 43.6013 68.0504 43.5447 67.8396C43.488 67.6288 43.5019 67.4053 43.5841 67.2032C43.6663 67.001 43.8125 66.8313 44.0002 66.7199ZM39.0802 69.5399L31.1502 74.1199C30.9575 74.2291 30.8066 74.3991 30.721 74.6033C30.6353 74.8075 30.6199 75.0344 30.6771 75.2483C30.7343 75.4622 30.8609 75.6511 31.037 75.7853C31.2131 75.9195 31.4288 75.9915 31.6502 75.9899C31.8263 75.9881 31.9987 75.9398 32.1502 75.8499L40.0802 71.2799C40.3109 71.1473 40.4795 70.9285 40.5489 70.6716C40.6183 70.4146 40.5828 70.1407 40.4502 69.9099C40.3176 69.6792 40.0987 69.5106 39.8418 69.4412C39.5849 69.3718 39.3109 69.4073 39.0802 69.5399ZM24.7401 77.83L26.1901 77C26.4185 76.8687 26.6895 76.833 26.9441 76.9004C27.1987 76.9678 27.4165 77.1329 27.5501 77.36C27.6166 77.4735 27.6601 77.599 27.678 77.7294C27.6959 77.8598 27.6879 77.9924 27.6545 78.1197C27.621 78.247 27.5628 78.3664 27.4831 78.4711C27.4034 78.5758 27.3038 78.6638 27.1901 78.73L25.7401 79.56C25.5906 79.6447 25.4219 79.6894 25.2501 79.69C25.0739 79.6907 24.9006 79.6448 24.7478 79.557C24.5951 79.4692 24.4682 79.3426 24.3801 79.19C24.2489 78.9615 24.2131 78.6906 24.2805 78.4359C24.3479 78.1813 24.5131 77.9635 24.7401 77.83Z" fill="#28CDCD"/>
</svg>
