<svg width="100" height="100" viewBox="0 0 100 100" fill="none" xmlns="http://www.w3.org/2000/svg">
<path d="M97.4 46.2001C97.4 46.1001 97.4 46.1001 97.3 46.0001L97.2 45.9001L97.1 45.8001L53.5 8.3001C53.4 8.3001 53.4 8.2001 53.3 8.2001L53.1 8.1001H52.9C52.8 8.1001 52.8 8.1001 52.7 8.1001H52.5L52.3 8.2001L3 36.6001C2.9 36.6001 2.9 36.7001 2.9 36.7001L2.8 36.8001C2.8 36.9001 2.7 36.9001 2.7 37.0001C2.7 37.0001 2.6 37.1001 2.6 37.2001C2.6 37.3001 2.5 37.3001 2.5 37.4001C2.5 37.5001 2.5 37.5001 2.5 37.6001V37.7001C2.5 37.8001 2.5 37.9001 2.6 37.9001C2.7 38.0001 2.7 38.1001 2.8 38.1001L9.8 44.0001L10.6 53.7001C10.6 54.0001 10.8 54.3001 11.1 54.5001L27.1 64.8001C27.3 64.9001 27.4 65.0001 27.6 65.0001C27.7 65.0001 27.8 65.0001 27.8 65.0001L33.2 63.7001L33.5 64.0001V77.3001L24.9 82.0001C24.6 82.2001 24.4 82.5001 24.4 82.9001C24.4 83.3001 24.6 83.6001 24.9 83.8001L38.6 91.8001C38.7 91.9001 38.9 92.0001 39.1 92.1001C39.3 92.1001 39.4 92.1001 39.6 92.0001L53.2 84.0001C53.5 83.8001 53.7 83.5001 53.7 83.1001C53.7 82.7001 53.5 82.4001 53.2 82.2001L46.9 78.7001C46.4 78.4001 45.8 78.6001 45.5 79.1001C45.2 79.6001 45.4 80.2001 45.9 80.5001L50.7 83.2001L39 89.8001L27.3 82.9001L33.4 79.6001V82.9001C33.4 83.3001 33.6 83.6001 33.9 83.8001L38.6 86.6001H38.7H38.8C38.9 86.6001 39 86.7001 39.1 86.7001C39.2 86.7001 39.3 86.7001 39.4 86.6001H39.5H39.6L44 83.8001C44.3 83.6001 44.5 83.3001 44.5 83.0001V74.7001C44.5 74.1001 44.1 73.7001 43.5 73.7001C42.9 73.7001 42.5 74.1001 42.5 74.7001V82.5001L40.1 84.0001L40 69.7001L47.8 76.3001C47.9 76.3001 47.9 76.4001 48 76.4001H48.1C48.2 76.4001 48.3 76.4001 48.4 76.4001C48.5 76.4001 48.7 76.4001 48.8 76.3001H49L62.2 68.4001L70.7 73.4001C70.9 73.5001 71 73.5001 71.2 73.5001C71.4 73.5001 71.5 73.5001 71.7 73.4001L85.4 65.5001C85.9 65.2001 86 64.6001 85.8 64.1001C85.7 63.9001 85.6 63.8001 85.4 63.7001L79.1 60.2001C78.6 59.9001 78 60.1001 77.7 60.6001C77.4 61.1001 77.6 61.7001 78.1 62.0001L82.8 64.7001L71.2 71.4001L64.1 67.3001L66.7 65.7001L70.8 68.1001H71C71.1 68.1001 71.2 68.2001 71.3 68.2001C71.4 68.2001 71.5 68.2001 71.6 68.1001H71.7H71.8L76.2 65.3001C76.5 65.1001 76.7 64.8001 76.7 64.4001V59.6001L97 47.4001L97.1 47.3001C97.1 47.3001 97.2 47.3001 97.2 47.2001C97.2 47.1001 97.3 47.1001 97.3 47.0001C97.3 46.9001 97.4 46.9001 97.4 46.8001C97.4 46.7001 97.4 46.7001 97.4 46.6001C97.4 46.5001 97.4 46.5001 97.4 46.4001C97.5 46.3001 97.5 46.2001 97.4 46.2001ZM86.1 38.8001L78.3 43.5001L71.1 37.4001L79 32.7001L86.1 38.8001ZM52.5 35.6001L60.4 31.0001L67.6 37.1001L59.7 41.8001L52.5 35.6001ZM57.9 42.8001L50 47.5001L42.8 41.3001L50.7 36.7001L57.9 42.8001ZM50.9 34.2001L43.7 28.1001L51.7 23.5001L58.9 29.6001L50.9 34.2001ZM49.1 35.3001L41.2 40.0001L33.9 33.8001L41.9 29.2001L49.1 35.3001ZM39.3 41.0001L31.4 45.7001L24 39.5001L32 34.9001L39.3 41.0001ZM29.5 46.7001L21.6 51.4001L14.2 45.2001L22.2 40.6001L29.5 46.7001ZM31.2 48.1001L38.5 54.3001L30.6 59.0001L23.2 52.8001L31.2 48.1001ZM33 47.0001L40.9 42.3001L48.2 48.5001L40.3 53.2001L33 47.0001ZM49.8 49.9001L57.1 56.1001L49.3 60.8001L42 54.6001L49.8 49.9001ZM51.7 48.8001L59.6 44.1001L66.8 50.3001L59 55.0001L51.7 48.8001ZM61.4 43.1001L69.3 38.4001L76.5 44.5001L68.7 49.2001L61.4 43.1001ZM77.3 31.3001L69.5 36.0001L62.3 29.9001L70.2 25.2001L77.3 31.3001ZM68.6 23.8001L60.7 28.4001L53.5 22.3001L61.5 17.7001L68.6 23.8001ZM52.7 10.3001L59.8 16.4001L51.8 21.0001L44.6 14.9001L52.7 10.3001ZM42.8 16.0001L50 22.1001L42 26.7001L34.8 20.6001L42.8 16.0001ZM33 21.6001L40.2 27.8001L32.2 32.4001L25 26.2001L33 21.6001ZM23.1 27.3001L30.4 33.5001L22.4 38.1001L15 31.9001L23.1 27.3001ZM5.2 37.6001L13.2 33.0001L20.5 39.2001L12.5 43.8001L11.3 42.8001L5.2 37.6001ZM27.7 63.0001L12.6 53.2001L12 45.9001L31.3 62.1001L27.7 63.0001ZM35.5 82.3001V65.6001L38.1 67.8001L38.2 83.8001L35.5 82.3001ZM39.6 66.5001L32.2 60.3001L40.1 55.6001L47.5 61.8001L39.6 66.5001ZM48.7 74.1001L41.3 67.9001L49.1 63.2001L56.5 69.4001L48.7 74.1001ZM58.3 68.3001L51 62.1001L58.8 57.4001L66.1 63.6001L58.3 68.3001ZM70.4 65.3001L68.8 64.3001L70.4 63.3001V65.3001ZM74.8 63.7001L72.3 65.2001V62.1001L74.8 60.6001V63.7001ZM67.9 62.5001L60.6 56.3001L68.4 51.6001L75.6 57.8001L67.9 62.5001ZM77.5 56.8001L70.3 50.6001L78.1 45.9001L85.3 52.0001L77.5 56.8001ZM87.1 51.0001L79.9 44.9001L87.7 40.2001L94.8 46.3001L87.1 51.0001Z" fill="#28CDCD"/>
</svg>
