<svg width="100" height="100" viewBox="0 0 100 100" fill="none" xmlns="http://www.w3.org/2000/svg">
<path fill-rule="evenodd" clip-rule="evenodd" d="M97.1604 45.1701C97.2635 45.0881 97.3494 44.9865 97.4132 44.8712C97.477 44.7559 97.5175 44.6292 97.5324 44.4983C97.5472 44.3673 97.5362 44.2348 97.4998 44.1081C97.4634 43.9815 97.4024 43.8632 97.3204 43.7601C97.2383 43.657 97.1367 43.5711 97.0214 43.5073C96.9061 43.4435 96.7794 43.403 96.6485 43.3881C96.5176 43.3733 96.385 43.3843 96.2583 43.4207C96.1317 43.4571 96.0135 43.5181 95.9104 43.6001C92.6282 46.3531 88.7148 48.2496 84.5204 49.1201C84.3458 49.1588 84.184 49.2414 84.0504 49.3601L61.0504 23.2901V9.71014C61.0534 9.59477 61.0365 9.47974 61.0004 9.37014C61.0041 9.34025 61.0041 9.31002 61.0004 9.28014C60.9504 9.17595 60.8827 9.08121 60.8004 9.00014C60.7382 8.94141 60.6713 8.8879 60.6004 8.84014L49.1204 2.21014H49.0404H48.9604C48.852 2.16716 48.7369 2.14347 48.6204 2.14014C48.5038 2.14347 48.3887 2.16716 48.2804 2.21014H48.2004H48.1304L36.6304 8.85014C36.5527 8.88844 36.4818 8.9391 36.4204 9.00014C36.3403 9.08092 36.2758 9.17586 36.2304 9.28014V9.36014C36.1874 9.46852 36.1637 9.58359 36.1604 9.70014V22.6501L29.6704 22.5201L32.2304 21.0001C32.4551 20.8616 32.6159 20.6398 32.6777 20.3831C32.7395 20.1265 32.6973 19.8558 32.5604 19.6301C32.4234 19.4038 32.2024 19.2409 31.9456 19.1772C31.6888 19.1134 31.4172 19.1541 31.1904 19.2901L25.9004 22.4501L15.6904 22.2501L23.8304 17.5501L33.6304 17.7501C33.8956 17.7501 34.1499 17.6448 34.3375 17.4572C34.525 17.2697 34.6304 17.0154 34.6304 16.7501C34.6304 16.4849 34.525 16.2306 34.3375 16.043C34.1499 15.8555 33.8956 15.7501 33.6304 15.7501L23.5504 15.5401H23.4904C23.4174 15.5297 23.3433 15.5297 23.2704 15.5401L23.1204 15.5901H23.0304L11.5904 22.3101C11.4083 22.4084 11.2666 22.5678 11.1904 22.7601C11.1517 22.8629 11.1282 22.9707 11.1204 23.0801C11.1216 23.1927 11.1419 23.3043 11.1804 23.4101V23.4901C11.2276 23.5826 11.2845 23.6698 11.3504 23.7501C11.4099 23.8227 11.4851 23.8809 11.5704 23.9201L36.1304 38.2201V65.3501L27.5504 84.8801V84.9801C27.5278 85.0452 27.5111 85.1121 27.5004 85.1801V85.3601V85.5501C27.5209 85.6159 27.5477 85.6795 27.5804 85.7401V85.8301C27.6039 85.8658 27.6307 85.8993 27.6604 85.9301L27.7104 85.9901C27.7904 86.0712 27.8855 86.1357 27.9904 86.1801C28.1058 86.2226 28.2274 86.2462 28.3504 86.2501C28.4532 86.2645 28.5575 86.2645 28.6604 86.2501C28.7414 86.2234 28.8187 86.1865 28.8904 86.1401L40.6604 78.4901L43.1304 85.2501C37.9924 89.4965 32.2662 92.976 26.1304 95.5801C26.0089 95.6307 25.8986 95.7047 25.8057 95.7979C25.7128 95.8911 25.6392 96.0017 25.5891 96.1233C25.5389 96.2449 25.5132 96.3753 25.5134 96.5069C25.5137 96.6384 25.5398 96.7687 25.5904 96.8901C25.6409 97.0116 25.7149 97.1219 25.8081 97.2148C25.9013 97.3077 26.0119 97.3813 26.1335 97.4314C26.2552 97.4816 26.3855 97.5073 26.5171 97.5071C26.6486 97.5068 26.7789 97.4807 26.9004 97.4301C35.126 93.9161 42.6499 88.9465 49.1104 82.7601C49.2174 82.6895 49.312 82.6017 49.3904 82.5001C55.9344 76.2172 61.7448 69.2124 66.7104 61.6201C67.432 63.5172 68.7428 65.133 70.4504 66.2301C71.4719 66.7658 72.6184 67.0178 73.7704 66.9598C74.9225 66.9017 76.0378 66.5358 77.0004 65.9001C78.7387 64.7211 80.1742 63.1485 81.1904 61.3101C82.715 58.8366 83.9339 56.1873 84.8204 53.4201L85.6304 52.9601L85.7004 52.9001L85.7904 52.8401C85.8158 52.818 85.8362 52.7907 85.8504 52.7601C85.9096 52.7163 85.9604 52.6621 86.0004 52.6001C86.0349 52.5511 86.0618 52.4972 86.0804 52.4401C86.0906 52.3772 86.0906 52.3131 86.0804 52.2501C86.0858 52.1869 86.0858 52.1234 86.0804 52.0601C86.0851 52.0002 86.0851 51.94 86.0804 51.8801C86.0711 51.8139 86.0508 51.7497 86.0204 51.6901C86.016 51.6569 86.016 51.6233 86.0204 51.5901L85.9504 51.5201L85.9004 51.4301L85.5204 51.0001V50.9401C89.7943 49.9427 93.7787 47.9676 97.1604 45.1701ZM60.0904 38.8801C60.3556 38.8801 60.6099 38.7748 60.7975 38.5872C60.985 38.3997 61.0904 38.1454 61.0904 37.8801V26.3201L69.1904 35.5201L59.6304 41.3101L50.1604 30.5601L59.0904 25.4101V37.8801C59.0904 38.1454 59.1957 38.3997 59.3833 38.5872C59.5708 38.7748 59.8251 38.8801 60.0904 38.8801ZM52.4404 37.3601C52.3255 37.2964 52.1991 37.2559 52.0686 37.241C51.938 37.2261 51.8058 37.2371 51.6795 37.2733C51.5532 37.3095 51.4353 37.3703 51.3325 37.4521C51.2297 37.5339 51.144 37.6352 51.0804 37.7501L49.6004 40.4101V33.0001L58.4304 43.0001V46.4401C58.4304 46.7054 58.5357 46.9597 58.7233 47.1472C58.9108 47.3348 59.1651 47.4401 59.4304 47.4401C59.6956 47.4401 59.9499 47.3348 60.1375 47.1472C60.325 46.9597 60.4304 46.7054 60.4304 46.4401V45.2501L68.8604 54.8101L50.0004 43.8901L52.8704 38.7201C52.9326 38.6029 52.9708 38.4743 52.9829 38.3421C52.9949 38.2099 52.9805 38.0766 52.9405 37.95C52.9004 37.8234 52.8356 37.706 52.7497 37.6048C52.6639 37.5035 52.5587 37.4203 52.4404 37.3601ZM49.6004 26.5801V16.9201L57.5304 12.3401L49.6004 26.5801ZM59.0904 23.1001L51.3304 27.5701L59.0904 13.6501V23.1001ZM38.0904 13.6501L45.8504 27.5801L38.1304 23.1001L38.0904 13.6501ZM38.0904 27.7101L45.8004 41.5001L38.2204 37.1101L38.1304 36.9401L38.0904 27.7101ZM38.0904 41.0501L46.2804 55.7501L38.1304 51.0001L38.0904 41.0501ZM38.0904 55.4501L46.0004 69.5101L38.1304 65.0001L38.0904 55.4501ZM16.0004 24.2501L25.2704 24.4401V27.6301C25.2704 27.8954 25.3757 28.1497 25.5633 28.3372C25.7508 28.5248 26.0051 28.6301 26.2704 28.6301C26.5356 28.6301 26.7899 28.5248 26.9775 28.3372C27.165 28.1497 27.2704 27.8954 27.2704 27.6301V24.4801L36.1804 24.6501V35.9101L16.0004 24.2501ZM30.7304 82.6201L37.0004 68.2401L40.0004 76.5401L30.7304 82.6201ZM39.0004 67.8001L46.6804 72.2401L41.8004 75.4201L39.0004 67.8001ZM47.5804 81.4501C46.6904 82.2801 45.7904 83.0901 44.8804 83.8701L42.5004 77.3501L47.5904 74.0001L47.5804 81.4501ZM47.5804 68.3301L39.7604 54.3301L47.6004 58.8001L47.5804 68.3301ZM47.5804 53.9401L40.1204 40.5201L43.3704 42.4001L47.6004 44.8401L47.5804 53.9401ZM47.5804 40.6001L39.5804 26.2601L47.5804 30.8801V40.6001ZM47.5804 26.5401L39.6904 12.3501L47.6004 16.9201L47.5804 26.5401ZM48.5804 15.1901L39.1304 9.71014L47.6204 4.81014V9.71014C47.6204 9.97535 47.7257 10.2297 47.9133 10.4172C48.1008 10.6048 48.3551 10.7101 48.6204 10.7101C48.8856 10.7101 49.1399 10.6048 49.3275 10.4172C49.515 10.2297 49.6204 9.97535 49.6204 9.71014V4.81014L58.0904 9.71014L48.5804 15.1901ZM49.5804 79.5401V74.0001L52.8504 76.1201C51.7804 77.3201 50.6904 78.4601 49.5904 79.5401H49.5804ZM56.8204 71.5401C56.8155 71.5699 56.8155 71.6003 56.8204 71.6301C55.9604 72.6301 55.0904 73.6301 54.2204 74.6301L50.5104 72.2201L58.2004 67.8001L56.8204 71.5401ZM79.4904 60.2601C78.6382 61.8193 77.4453 63.1661 76.0004 64.2001C75.3454 64.6424 74.5854 64.9039 73.797 64.9583C73.0086 65.0128 72.2199 64.8582 71.5104 64.5101C69.8171 63.5141 69.1159 61.9922 68.2408 60.0928L68.2304 60.0701C68.1517 59.8885 68.0656 59.7032 67.9789 59.5165L67.9788 59.5163L67.9783 59.5152C67.922 59.3939 67.8654 59.272 67.8104 59.1501C67.734 58.9888 67.6158 58.8509 67.4681 58.7506C67.3204 58.6504 67.1485 58.5915 66.9704 58.5801C66.7861 58.5592 66.5995 58.5869 66.4293 58.6606C66.2591 58.7343 66.1112 58.8514 66.0004 59.0001C64.4604 61.3801 62.8904 63.6535 61.2904 65.8201L61.0704 65.3201V57.2801C61.0704 57.0149 60.965 56.7606 60.7775 56.573C60.5899 56.3855 60.3356 56.2801 60.0704 56.2801C59.8051 56.2801 59.5508 56.3855 59.3633 56.573C59.1757 56.7606 59.0704 57.0149 59.0704 57.2801V65.0001L51.2104 69.5301L55.0404 62.6601C55.173 62.4294 55.2085 62.1554 55.1391 61.8985C55.0697 61.6416 54.9011 61.4227 54.6704 61.2901C54.4396 61.1575 54.1657 61.122 53.9087 61.1914C53.6518 61.2608 53.433 61.4294 53.3004 61.6601L49.5704 68.3501V58.8101L58.3604 53.7301C58.4799 53.6676 58.5855 53.5816 58.6709 53.4772C58.7563 53.3728 58.8197 53.2522 58.8572 53.1227C58.8948 52.9931 58.9058 52.8574 58.8895 52.7235C58.8733 52.5896 58.8301 52.4604 58.7626 52.3436C58.6951 52.2268 58.6047 52.1249 58.4968 52.044C58.3889 51.9631 58.2657 51.9049 58.1348 51.8728C58.0038 51.8407 57.8676 51.8354 57.7345 51.8573C57.6015 51.8792 57.4742 51.9278 57.3604 52.0001L51.2004 55.5501L52.7904 52.7001C52.923 52.4694 52.9585 52.1954 52.8891 51.9385C52.8197 51.6816 52.6511 51.4627 52.4204 51.3301C52.1896 51.1975 51.9157 51.162 51.6587 51.2314C51.4018 51.3008 51.183 51.4694 51.0504 51.7001L49.6004 54.3801V46.0001L73.1404 59.6001H73.2104H73.2804C73.3954 59.6457 73.5169 59.6727 73.6404 59.6801C73.7455 59.6707 73.8493 59.6506 73.9504 59.6201H74.0404H74.1404L82.1404 55.0101C81.407 56.8319 80.5204 58.5882 79.4904 60.2601ZM83.1304 52.0901L73.8504 57.4501L61.0004 42.8401L70.5304 37.0001L83.2904 51.5201L83.2903 51.5202L83.2903 51.5203C83.2403 51.7102 83.1903 51.9002 83.1304 52.0901ZM63.4002 70.6101L69.6702 84.8801L69.6502 84.8901C69.7182 85.0396 69.7483 85.2036 69.7378 85.3676C69.7274 85.5315 69.6767 85.6904 69.5902 85.8301C69.4987 85.969 69.3739 86.083 69.2273 86.1615C69.0806 86.2401 68.9166 86.2809 68.7502 86.2801C68.5586 86.2796 68.3712 86.224 68.2102 86.1201L56.5302 78.5301C56.4095 78.4637 56.3038 78.3732 56.2197 78.2642C56.1357 78.1551 56.075 78.0298 56.0416 77.8962C56.0082 77.7626 56.0027 77.6236 56.0256 77.4878C56.0484 77.352 56.099 77.2224 56.1743 77.107C56.2496 76.9917 56.3479 76.8932 56.463 76.8176C56.5781 76.7421 56.7076 76.6911 56.8433 76.6679C56.9791 76.6447 57.1182 76.6498 57.2518 76.6829C57.3855 76.7159 57.5109 76.7763 57.6202 76.8601L66.4902 82.6201L61.5702 71.4101C61.5094 71.2887 61.4739 71.1562 61.4659 71.0207C61.4579 70.8852 61.4775 70.7495 61.5237 70.6218C61.5699 70.4941 61.6415 70.3772 61.7343 70.2781C61.8272 70.179 61.9392 70.0999 62.0636 70.0455C62.188 69.9911 62.3221 69.9627 62.4579 69.9618C62.5936 69.961 62.7281 69.9878 62.8532 70.0406C62.9783 70.0934 63.0913 70.1711 63.1853 70.269C63.2793 70.3669 63.3525 70.483 63.4002 70.6101ZM54.792 78.9382C54.9242 78.9329 55.0562 78.954 55.1802 79.0001C55.4006 79.1122 55.5716 79.3021 55.6603 79.5329C55.7489 79.7638 55.7489 80.0193 55.6602 80.2501L49.4202 97.2501C49.4221 97.2635 49.4229 97.2769 49.4226 97.2904C49.4224 97.3003 49.4216 97.3102 49.4202 97.3201C49.3905 97.3779 49.3535 97.4317 49.3102 97.4801C49.2804 97.5324 49.247 97.5825 49.2102 97.6301C49.1659 97.6636 49.1191 97.6937 49.0702 97.7201C49.0092 97.7636 48.9457 97.8037 48.8802 97.8401C48.7677 97.8795 48.6494 97.8997 48.5302 97.9001C48.4103 97.8979 48.2917 97.8742 48.1802 97.8301H48.0802C48.0099 97.7927 47.943 97.7492 47.8802 97.7001L47.8002 97.6201C47.7467 97.5549 47.6998 97.4846 47.6602 97.4101C47.6569 97.3802 47.6569 97.35 47.6602 97.3201L44.6602 89.1301C44.5687 88.8808 44.58 88.6054 44.6916 88.3644C44.8031 88.1234 45.0059 87.9366 45.2552 87.8451C45.5045 87.7536 45.7799 87.7649 46.0209 87.8765C46.2619 87.9881 46.4487 88.1908 46.5402 88.4401L47.5902 91.3301V86.3301C47.5902 86.0649 47.6955 85.8105 47.8831 85.623C48.0706 85.4355 48.325 85.3301 48.5902 85.3301C48.8554 85.3301 49.1098 85.4355 49.2973 85.623C49.4848 85.8105 49.5902 86.0649 49.5902 86.3301V91.3301L53.8902 79.6001C53.9348 79.4755 54.0037 79.361 54.0929 79.2633C54.1822 79.1655 54.2899 79.0865 54.4099 79.0307C54.5299 78.9749 54.6597 78.9434 54.792 78.9382ZM23.8703 33.5101L24.0003 33.4301C24.1139 33.3559 24.241 33.3048 24.3743 33.2798C24.5077 33.2547 24.6446 33.2561 24.7774 33.284C24.9102 33.3118 25.0362 33.3656 25.1482 33.4421C25.2603 33.5187 25.3561 33.6165 25.4303 33.7301C25.5045 33.8437 25.5556 33.9708 25.5807 34.1042C25.6058 34.2375 25.6043 34.3745 25.5765 34.5073C25.5486 34.6401 25.4949 34.7661 25.4183 34.8781C25.3418 34.9901 25.2439 35.0859 25.1303 35.1601L24.9403 35.2701C23.9778 35.9058 22.8624 36.2717 21.7104 36.3298C20.5584 36.3878 19.4118 36.1358 18.3903 35.6001C16.6905 34.5013 15.3842 32.8903 14.6603 31.0001C11.4681 35.7774 7.97087 40.3436 4.1903 44.6701C4.10343 44.77 3.9976 44.8516 3.87895 44.9102C3.7603 44.9689 3.63119 45.0034 3.4991 45.0118C3.36702 45.0201 3.23458 45.0022 3.10947 44.959C2.98437 44.9158 2.86908 44.8482 2.7703 44.7601C2.57161 44.585 2.45055 44.3381 2.43367 44.0738C2.4168 43.8094 2.5055 43.5492 2.6803 43.3501C6.78365 38.6227 10.5464 33.6101 13.9403 28.3501C14.038 28.2007 14.1739 28.0802 14.334 28.0011C14.494 27.9219 14.6723 27.8871 14.8503 27.9001C15.0267 27.9132 15.1965 27.9729 15.3423 28.0731C15.4881 28.1732 15.6047 28.3102 15.6803 28.4701C15.7829 28.6822 15.8808 28.8942 15.9773 29.1031C16.0218 29.1996 16.0661 29.2953 16.1103 29.3901L16.1207 29.4127C16.9958 31.3122 17.697 32.8341 19.3903 33.8301C20.0983 34.1789 20.8864 34.333 21.6736 34.2768C22.4609 34.2206 23.219 33.956 23.8703 33.5101Z" fill="#28CDCD"/>
</svg>
