<svg width="100" height="100" viewBox="0 0 100 100" fill="none" xmlns="http://www.w3.org/2000/svg">
<path fill-rule="evenodd" clip-rule="evenodd" d="M84.8127 15.0612C85.0272 15.0864 85.2277 15.1804 85.3844 15.3291C85.5434 15.4806 85.6482 15.6801 85.6825 15.897C85.7168 16.1138 85.6788 16.336 85.5744 16.5292L67.1844 51.5292C67.0993 51.6888 66.9726 51.8224 66.8176 51.9158C66.6626 52.0091 66.4853 52.0586 66.3044 52.0591C66.1776 52.061 66.0517 52.0372 65.9344 51.9891C65.7052 51.8972 65.5182 51.7238 65.4093 51.5022C65.3004 51.2807 65.2772 51.0267 65.3444 50.7892L70.5244 32.4291L65.6944 35.2192C65.5222 35.3173 65.3248 35.3621 65.1272 35.3478C64.9296 35.3336 64.7406 35.2609 64.5844 35.1391C64.4272 35.0173 64.31 34.8513 64.2477 34.6625C64.1854 34.4737 64.1807 34.2706 64.2344 34.0791L70.0944 13.6791C70.1656 13.4303 70.3305 13.2189 70.5544 13.0892L80.8544 7.13914C81.0355 7.03208 81.2458 6.98487 81.4553 7.00425C81.6648 7.02364 81.8629 7.10863 82.0213 7.24711C82.1797 7.38559 82.2904 7.57051 82.3377 7.77555C82.3849 7.9806 82.3662 8.19531 82.2844 8.38914L78.0844 18.6991L84.1944 15.1891C84.3812 15.0808 84.5981 15.036 84.8127 15.0612ZM73.1244 30.6191L69.8644 42.1291L82.2044 18.6891L76.5544 21.9491C76.3749 22.052 76.1678 22.0967 75.9619 22.077C75.7559 22.0573 75.5611 21.9742 75.4044 21.8392C75.2452 21.7017 75.1334 21.5175 75.0849 21.3128C75.0365 21.1082 75.0538 20.8934 75.1344 20.6991L79.3844 10.3392L71.9544 14.6291L66.8444 32.2591L71.6544 29.4792C71.8269 29.3769 72.0263 29.3288 72.2265 29.3413C72.4267 29.3538 72.6186 29.4262 72.7771 29.5491C72.9357 29.6721 73.0535 29.8399 73.1155 30.0307C73.1774 30.2215 73.1805 30.4265 73.1244 30.6191ZM21.5639 27.2593C21.4577 28.37 21.6111 29.4901 22.012 30.5314C22.4129 31.5727 23.0503 32.5065 23.8739 33.2593C24.0613 33.4455 24.3147 33.55 24.5789 33.55C24.8431 33.55 25.0966 33.4455 25.2839 33.2593C25.3777 33.1663 25.4521 33.0557 25.5028 32.9338C25.5536 32.812 25.5797 32.6812 25.5797 32.5492C25.5797 32.4172 25.5536 32.2865 25.5028 32.1647C25.4521 32.0428 25.3777 31.9322 25.2839 31.8393C24.6694 31.3039 24.1905 30.6306 23.8863 29.8745C23.5821 29.1184 23.4614 28.301 23.5339 27.4892C23.7839 25.6692 25.2139 23.9193 27.5339 22.5693C33.3839 19.2093 42.9439 19.2293 48.8439 22.5693C51.5239 24.0993 52.9939 26.0793 52.9939 28.1293C52.9939 30.1793 51.5439 32.1292 48.9139 33.6192C44.9139 35.8792 39.1539 36.6793 33.7439 35.7093C33.6126 35.6856 33.4779 35.6881 33.3475 35.7165C33.2172 35.7449 33.0937 35.7987 32.9841 35.8749C32.8745 35.951 32.781 36.048 32.7089 36.1603C32.6368 36.2725 32.5876 36.398 32.5639 36.5293C32.5403 36.6606 32.5428 36.7953 32.5712 36.9256C32.5996 37.056 32.6534 37.1795 32.7296 37.2891C32.8057 37.3987 32.9027 37.4922 33.015 37.5643C33.1272 37.6363 33.2526 37.6856 33.3839 37.7093C35.0148 37.9971 36.6678 38.141 38.3239 38.1393C42.3679 38.2385 46.3704 37.3058 49.9539 35.4292C53.2339 33.5492 55.0339 30.9893 55.0339 28.2093C55.0339 25.4293 53.2039 22.8193 49.8839 20.9093C43.4339 17.2193 32.9839 17.1993 26.5739 20.9093C23.6839 22.5393 21.8939 24.8093 21.5639 27.2593ZM53.7837 20.1593C53.6699 20.0869 53.5426 20.0384 53.4095 20.0165C53.2764 19.9946 53.1403 19.9998 53.0093 20.0319C52.8783 20.064 52.7552 20.1223 52.6473 20.2032C52.5394 20.2841 52.4489 20.386 52.3815 20.5027C52.314 20.6195 52.2708 20.7487 52.2545 20.8826C52.2383 21.0165 52.2493 21.1523 52.2868 21.2818C52.3244 21.4113 52.3878 21.5319 52.4732 21.6363C52.5586 21.7407 52.6642 21.8267 52.7837 21.8893C56.4737 24.0193 58.5137 26.7792 58.5537 29.6692V29.8493C58.5537 32.7093 56.4937 35.4293 52.8737 37.5193C44.8737 42.1293 31.8737 42.1093 23.7837 37.4593C20.0637 35.3093 18.0037 32.5193 18.0037 29.5893C18.0037 26.6593 20.0037 23.9393 23.6937 21.8193C23.9114 21.6809 24.0671 21.4638 24.1285 21.2132C24.1899 20.9627 24.1521 20.6982 24.023 20.4749C23.8939 20.2516 23.6836 20.0868 23.4359 20.0149C23.1881 19.9431 22.9222 19.9697 22.6937 20.0893C18.3837 22.5793 16.0037 25.9493 16.0037 29.5893V29.6493V80.1993C15.9988 80.2358 15.9988 80.2727 16.0037 80.3092C16.0837 83.9092 18.4837 87.2493 22.7737 89.7193C27.579 92.2798 32.9598 93.5674 38.4037 93.4593C43.7833 93.5706 49.1019 92.3038 53.8537 89.7793C58.1637 87.2893 60.5337 83.9193 60.5337 80.2893C60.5386 80.2595 60.5386 80.2291 60.5337 80.1993V29.8692V29.7593C60.5637 26.0893 58.1537 22.6993 53.7837 20.1593ZM58.5537 37.9493V80.0893C58.5493 80.1225 58.5493 80.1561 58.5537 80.1893C58.5537 83.1093 56.5537 85.8893 52.8737 88.0293C44.8737 92.6393 31.8737 92.6193 23.7937 87.9693C20.1037 85.8393 18.0537 83.0692 18.0237 80.1692V80.0893V35.0893C19.3297 36.7511 20.9549 38.1349 22.8037 39.1593C27.6117 41.7118 32.9912 42.9956 38.4337 42.8893C43.8166 43.0014 49.1386 41.7346 53.8937 39.2093C55.703 38.1987 57.2937 36.8391 58.5737 35.2093L58.5537 37.9493ZM38.2491 20.9807C39.965 20.9807 41.6564 21.388 43.1841 22.1692C43.853 22.4684 44.4269 22.9456 44.8431 23.5487C45.2593 24.1518 45.5018 24.8577 45.5441 25.5892V29.2392C45.509 29.9699 45.2741 30.677 44.8651 31.2836C44.456 31.8901 43.8885 32.3728 43.2242 32.6792C41.6986 33.4675 40.0064 33.8789 38.2892 33.8789C36.5719 33.8789 34.8797 33.4675 33.3541 32.6792C32.6938 32.3711 32.1272 31.8929 31.7125 31.2937C31.2978 30.6945 31.0499 29.9958 30.9941 29.2692V25.3592C31.0901 24.6782 31.3518 24.0311 31.7564 23.4749C32.1609 22.9187 32.6958 22.4703 33.3141 22.1692C34.8419 21.388 36.5333 20.9807 38.2491 20.9807ZM43.2542 28.9892C41.3881 29.9605 39.2739 30.3506 37.1841 30.1092H37.1741C36.9089 30.084 36.6646 29.9545 36.4949 29.7491C36.3251 29.5438 36.244 29.2794 36.2691 29.0142C36.2943 28.749 36.4239 28.5047 36.6292 28.335C36.8346 28.1652 37.0989 28.084 37.3642 28.1092C39.041 28.3056 40.7385 28.003 42.2441 27.2392C43.0841 26.7592 43.5641 26.1592 43.5641 25.5792C43.5641 24.9992 43.0741 24.3792 42.2141 23.8892C40.9867 23.2916 39.6394 22.981 38.2742 22.981C36.9089 22.981 35.5616 23.2916 34.3342 23.8892C34.0102 24.0305 33.7234 24.2449 33.4961 24.5156C33.2689 24.7862 33.1073 25.1057 33.0242 25.4492V29.2492C33.0342 29.8292 33.5241 30.4492 34.3841 30.9392C35.6064 31.5485 36.9534 31.8657 38.3192 31.8657C39.6849 31.8657 41.0319 31.5485 42.2542 30.9392C43.1042 30.4592 43.5741 29.8392 43.5741 29.2492V28.7892L43.2542 28.9892ZM52.8537 44.2392C52.7017 44.1514 52.5293 44.1052 52.3537 44.1052C52.1782 44.1052 52.0057 44.1514 51.8537 44.2392C48.8924 45.6707 45.7051 46.5775 42.4337 46.9192C42.1898 46.9487 41.9653 47.0669 41.803 47.2513C41.6407 47.4358 41.552 47.6735 41.5537 47.9192V85.4692C41.5537 85.7345 41.6591 85.9888 41.8466 86.1763C42.0342 86.3639 42.2885 86.4692 42.5537 86.4692H42.6637C46.1697 86.1072 49.5849 85.1324 52.7537 83.5892C52.9186 83.5061 53.0573 83.379 53.1544 83.2219C53.2515 83.0648 53.3032 82.8839 53.3037 82.6992V45.0892C53.3062 44.9212 53.2663 44.7551 53.1876 44.6066C53.109 44.458 52.9941 44.3316 52.8537 44.2392ZM51.3337 63.8592C48.8739 64.9851 46.2632 65.7464 43.5837 66.1192V58.5592C46.2455 58.195 48.8498 57.4927 51.3337 56.4692V63.8592ZM43.5837 68.1592C46.2474 67.8045 48.8529 67.1018 51.3337 66.0692V72.3992C48.8706 73.5161 46.2611 74.2771 43.5837 74.6592V68.1592ZM43.5837 48.7492C46.2464 48.3898 48.8514 47.6873 51.3337 46.6592V54.2592C48.8723 55.3806 46.2621 56.1417 43.5837 56.5192V48.7492ZM43.5837 84.2792V76.6992C46.246 76.343 48.8509 75.6439 51.3337 74.6192V82.0392C48.8717 83.1552 46.2614 83.9096 43.5837 84.2792Z" fill="#28CDCD"/>
</svg>
