<svg width="100" height="100" viewBox="0 0 100 100" fill="none" xmlns="http://www.w3.org/2000/svg">
<path fill-rule="evenodd" clip-rule="evenodd" d="M10.3499 42.7099L6.91995 44.7099V55.2899L49 79.5799V70.1599L8.84995 46.9799C8.73044 46.9174 8.62482 46.8314 8.53943 46.727C8.45404 46.6226 8.39065 46.502 8.35307 46.3725C8.3155 46.243 8.30451 46.1072 8.32077 45.9733C8.33703 45.8394 8.38021 45.7102 8.44771 45.5934C8.5152 45.4767 8.60562 45.3747 8.71352 45.2938C8.82141 45.2129 8.94457 45.1547 9.07556 45.1226C9.20656 45.0905 9.34269 45.0852 9.47577 45.1071C9.60885 45.129 9.73613 45.1776 9.84995 45.2499L50 68.4299L92.1499 44.1299C91.9895 43.9747 91.8856 43.7703 91.8548 43.5492C91.824 43.3281 91.8681 43.1031 91.9799 42.9099C92.1119 42.6812 92.3289 42.5139 92.5837 42.4446C92.8385 42.3753 93.1103 42.4096 93.3399 42.5399L94.6199 43.2799C94.695 43.3219 94.7626 43.376 94.8199 43.4399C94.8977 43.5226 94.9619 43.6171 95.0099 43.7199V43.7999C95.0529 43.9083 95.0766 44.0234 95.0799 44.1399V55.8599C95.0807 56.0362 95.0348 56.2094 94.947 56.3622C94.8592 56.515 94.7326 56.6418 94.5799 56.7299L50.5 82.2199C50.449 82.2459 50.3954 82.266 50.34 82.2799H50.25H50.11H50C49.9136 82.2898 49.8263 82.2898 49.74 82.2799C49.6566 82.2552 49.5762 82.2217 49.5 82.1799L10.3499 59.5599L6.91995 61.5599V72.1299L49 96.4099V86.9999L8.84995 63.8299C8.7357 63.7643 8.6355 63.6768 8.55507 63.5724C8.47465 63.468 8.41557 63.3488 8.38121 63.2216C8.34686 63.0944 8.33789 62.9616 8.35483 62.8309C8.37177 62.7003 8.41429 62.5742 8.47995 62.4599C8.54561 62.3457 8.63313 62.2455 8.73752 62.1651C8.8419 62.0846 8.9611 62.0256 9.08832 61.9912C9.21554 61.9568 9.34827 61.9479 9.47895 61.9648C9.60963 61.9818 9.7357 62.0243 9.84995 62.0899L50 85.2799L92.1199 60.9999C92.0169 60.9179 91.931 60.8163 91.8671 60.701C91.8033 60.5857 91.7628 60.459 91.7479 60.3281C91.7331 60.1971 91.7441 60.0646 91.7805 59.9379C91.8169 59.8113 91.8779 59.693 91.9599 59.5899C92.042 59.4869 92.1436 59.4009 92.2589 59.3371C92.3742 59.2733 92.5009 59.2328 92.6318 59.2179C92.7627 59.2031 92.8953 59.2141 93.022 59.2505C93.1486 59.2869 93.2669 59.3479 93.3699 59.4299L94.6199 60.1499C94.6909 60.1977 94.7578 60.2512 94.8199 60.3099C94.8978 60.3888 94.962 60.48 95.0099 60.5799V60.6699C95.0532 60.7748 95.0769 60.8866 95.0799 60.9999V72.7099C95.0789 72.8845 95.0322 73.0556 94.9445 73.2065C94.8568 73.3574 94.7311 73.4827 94.5799 73.5699L50.5 98.9999C50.4427 99.0437 50.3785 99.0775 50.31 99.0999H50.2599H50.08H50C49.9139 99.1145 49.826 99.1145 49.74 99.0999C49.6551 99.0796 49.5741 99.0458 49.5 98.9999L5.48995 73.5699C5.33881 73.4827 5.21314 73.3574 5.12542 73.2065C5.03771 73.0556 4.991 72.8845 4.98995 72.7099V60.9799V60.8599C4.97963 60.7937 4.97963 60.7262 4.98995 60.6599C5.01054 60.6006 5.03736 60.5436 5.06995 60.4899C5.09731 60.4331 5.13085 60.3794 5.16995 60.3299L5.32995 60.1999L5.41995 60.1099L8.36995 58.4199L5.43995 56.7299C5.28734 56.6418 5.16073 56.515 5.07293 56.3622C4.98512 56.2094 4.93925 56.0362 4.93995 55.8599V44.1399V44.0199C4.95421 43.8882 4.9987 43.7616 5.06995 43.6499C5.09731 43.5931 5.13085 43.5394 5.16995 43.4899L5.31995 43.3599C5.35995 43.3299 5.41995 43.2699 5.41995 43.2699L8.42995 41.5599L5.49995 39.8699C5.34734 39.7818 5.22073 39.655 5.13293 39.5022C5.04512 39.3494 4.99925 39.1762 4.99995 38.9999V27.3199V27.1999C4.99077 27.1336 4.99077 27.0663 4.99995 26.9999C5.0178 26.9315 5.04121 26.8646 5.06995 26.7999C5.09965 26.7444 5.13306 26.691 5.16995 26.6399L5.32995 26.5099C5.35495 26.4781 5.38543 26.451 5.41995 26.4299L49.5 0.999941C49.652 0.912173 49.8244 0.865967 50 0.865967C50.1755 0.865967 50.3479 0.912173 50.5 0.999941L94.6099 26.4899C94.6826 26.5314 94.7498 26.5818 94.8099 26.6399C94.89 26.7207 94.9545 26.8157 94.9999 26.9199V26.9999C95.0411 27.092 95.0681 27.1898 95.0799 27.2899V39.0199C95.0807 39.1962 95.0348 39.3694 94.947 39.5222C94.8592 39.675 94.7326 39.8018 94.5799 39.8899L50.5 65.3799L50.34 65.4399H50.25H50.11H50C49.9136 65.4498 49.8263 65.4498 49.74 65.4399L49.5 65.3399L10.3499 42.7099ZM51 53.3199V62.7399L93.0799 38.4099V28.9999L51 53.3199ZM50 2.99994L6.91995 27.8699V38.4399L49 62.7399V53.3199L8.78995 30.0999C8.67044 30.0374 8.56482 29.9514 8.47943 29.847C8.39404 29.7426 8.33065 29.622 8.29307 29.4925C8.2555 29.3629 8.24451 29.2272 8.26077 29.0933C8.27703 28.9594 8.32021 28.8302 8.3877 28.7134C8.4552 28.5966 8.54562 28.4947 8.65351 28.4138C8.76141 28.3329 8.88457 28.2747 9.01556 28.2426C9.14656 28.2105 9.28269 28.2052 9.41577 28.2271C9.54885 28.249 9.67613 28.2976 9.78995 28.3699L50 51.5899L92.0799 27.2899L50 2.99994ZM93.0799 72.1299V62.7099L51 86.9999V96.4199L93.0799 72.1299ZM93.0799 55.2899V45.8699L51 70.1599V79.5799L93.0799 55.2899ZM11 33.09C10.7348 33.09 10.4804 33.1953 10.2929 33.3829C10.1054 33.5704 10 33.8247 10 34.09V38.26C10 38.5252 10.1054 38.7795 10.2929 38.9671C10.4804 39.1546 10.7348 39.26 11 39.26C11.2652 39.26 11.5196 39.1546 11.7071 38.9671C11.8946 38.7795 12 38.5252 12 38.26V34.09C12 33.8247 11.8946 33.5704 11.7071 33.3829C11.5196 33.1953 11.2652 33.09 11 33.09ZM14.4399 35.1C14.1747 35.1 13.9204 35.2053 13.7328 35.3929C13.5453 35.5804 13.4399 35.8348 13.4399 36.1V40.27C13.4399 40.5352 13.5453 40.7896 13.7328 40.9771C13.9204 41.1646 14.1747 41.27 14.4399 41.27C14.7052 41.27 14.9595 41.1646 15.147 40.9771C15.3346 40.7896 15.4399 40.5352 15.4399 40.27V36.1C15.4399 35.8348 15.3346 35.5804 15.147 35.3929C14.9595 35.2053 14.7052 35.1 14.4399 35.1ZM17.2129 37.4029C17.4005 37.2153 17.6548 37.11 17.92 37.11C18.1853 37.11 18.4396 37.2153 18.6272 37.4029C18.8147 37.5904 18.92 37.8448 18.92 38.11V42.28C18.92 42.5452 18.8147 42.7996 18.6272 42.9871C18.4396 43.1746 18.1853 43.28 17.92 43.28C17.6548 43.28 17.4005 43.1746 17.2129 42.9871C17.0254 42.7996 16.92 42.5452 16.92 42.28V38.11C16.92 37.8448 17.0254 37.5904 17.2129 37.4029ZM21.41 39.12C21.1448 39.12 20.8905 39.2253 20.7029 39.4129C20.5154 39.6004 20.41 39.8548 20.41 40.12V44.3C20.41 44.5652 20.5154 44.8196 20.7029 45.0071C20.8905 45.1946 21.1448 45.3 21.41 45.3C21.6753 45.3 21.9296 45.1946 22.1171 45.0071C22.3047 44.8196 22.41 44.5652 22.41 44.3V40.12C22.41 39.8548 22.3047 39.6004 22.1171 39.4129C21.9296 39.2253 21.6753 39.12 21.41 39.12ZM56.7151 51.9647C57.0912 51.9454 57.4657 52.0266 57.8 52.2C58.1241 52.3986 58.3889 52.6806 58.5666 53.0167C58.7443 53.3527 58.8283 53.7303 58.81 54.11C58.7817 54.8494 58.5739 55.5707 58.2046 56.2119C57.8352 56.853 57.3154 57.3946 56.69 57.79C56.3167 58.0101 55.8932 58.1306 55.46 58.14C55.1375 58.1424 54.8202 58.0597 54.54 57.9C54.2162 57.7017 53.9523 57.4194 53.7762 57.0831C53.6001 56.7468 53.5185 56.369 53.54 55.99C53.54 55.7248 53.6454 55.4704 53.8329 55.2829C54.0204 55.0953 54.2748 54.99 54.54 54.99C54.8052 54.99 55.0596 55.0953 55.2471 55.2829C55.4346 55.4704 55.54 55.7248 55.54 55.99C55.5341 56.0298 55.5341 56.0702 55.54 56.11H55.65C55.9755 55.8828 56.2454 55.5848 56.4394 55.2384C56.6333 54.8921 56.7464 54.5063 56.77 54.11C56.7759 54.0702 56.7759 54.0298 56.77 53.99L56.66 54.05C56.4293 54.1826 56.1553 54.2181 55.8984 54.1487C55.6414 54.0793 55.4226 53.9107 55.29 53.68C55.1574 53.4492 55.1219 53.1753 55.1913 52.9184C55.2607 52.6614 55.4293 52.4426 55.66 52.31C55.9748 52.1032 56.339 51.984 56.7151 51.9647ZM63.5299 48.8899C63.1929 48.7181 62.8164 48.6387 62.4388 48.6598C62.0611 48.6809 61.6957 48.8017 61.3799 49.0099C61.1623 49.1483 61.0065 49.3654 60.9451 49.6159C60.8838 49.8665 60.9216 50.131 61.0507 50.3543C61.1797 50.5776 61.3901 50.7424 61.6378 50.8143C61.8855 50.8861 62.1514 50.8595 62.3799 50.7399L62.4999 50.6799V50.8099C62.4711 51.1967 62.3554 51.572 62.1615 51.9078C61.9676 52.2437 61.7004 52.5315 61.3799 52.7499L61.2699 52.8099V52.6799C61.2699 52.4147 61.1646 52.1604 60.9771 51.9728C60.7895 51.7853 60.5352 51.6799 60.2699 51.6799C60.0047 51.6799 59.7504 51.7853 59.5628 51.9728C59.3753 52.1604 59.2699 52.4147 59.2699 52.6799C59.2498 53.0601 59.332 53.4388 59.5078 53.7765C59.6837 54.1141 59.9469 54.3985 60.2699 54.5999C60.5501 54.7596 60.8675 54.8424 61.1899 54.8399C61.6217 54.8329 62.0435 54.7084 62.4099 54.4799C63.034 54.0855 63.553 53.5455 63.9222 52.9062C64.2915 52.2669 64.5001 51.5476 64.5299 50.8099C64.5511 50.4296 64.4695 50.0505 64.2935 49.7127C64.1175 49.3748 63.8538 49.0906 63.5299 48.8899ZM68.17 45.3518C68.5481 45.3324 68.9244 45.4147 69.26 45.59C69.5856 45.787 69.8516 46.0687 70.0295 46.4051C70.2074 46.7415 70.2905 47.12 70.27 47.5C70.2417 48.2393 70.0339 48.9607 69.6646 49.6019C69.2952 50.243 68.7754 50.7846 68.15 51.18C67.7767 51.4001 67.3532 51.5206 66.92 51.53C66.5977 51.531 66.2807 51.4483 66 51.29C65.6762 51.0893 65.4124 50.8051 65.2364 50.4672C65.0605 50.1294 64.9788 49.7503 65 49.37C65 49.1048 65.1053 48.8504 65.2929 48.6629C65.4804 48.4753 65.7348 48.37 66 48.37C66.2652 48.37 66.5196 48.4753 66.7071 48.6629C66.8946 48.8504 67 49.1048 67 49.37C66.9942 49.4131 66.9942 49.4568 67 49.5L67.1 49.49C67.421 49.2721 67.6885 48.9844 67.8825 48.6484C68.0765 48.3124 68.1918 47.9369 68.22 47.55C68.2259 47.5102 68.2259 47.4698 68.22 47.43H68.11C67.9962 47.5023 67.8689 47.5509 67.7358 47.5728C67.6027 47.5947 67.4666 47.5894 67.3356 47.5574C67.2046 47.5253 67.0815 47.467 66.9736 47.3861C66.8657 47.3052 66.7752 47.2033 66.7077 47.0865C66.6403 46.9697 66.5971 46.8405 66.5808 46.7066C66.5645 46.5728 66.5755 46.437 66.6131 46.3074C66.6507 46.1779 66.7141 46.0573 66.7995 45.9529C66.8849 45.8485 66.9905 45.7625 67.11 45.7C67.4259 45.4913 67.7919 45.3711 68.17 45.3518ZM76.08 41.8199C75.8147 41.8199 75.5604 41.9253 75.3728 42.1128C75.1853 42.3004 75.08 42.5547 75.08 42.8199V43.8199C75.08 44.0852 75.1853 44.3395 75.3728 44.5271C75.5604 44.7146 75.8147 44.8199 76.08 44.8199C76.3452 44.8199 76.5995 44.7146 76.7871 44.5271C76.9746 44.3395 77.08 44.0852 77.08 43.8199V42.8199C77.08 42.5547 76.9746 42.3004 76.7871 42.1128C76.5995 41.9253 76.3452 41.8199 76.08 41.8199ZM78.8728 40.0929C79.0604 39.9054 79.3147 39.8 79.58 39.8C79.8452 39.8 80.0995 39.9054 80.2871 40.0929C80.4746 40.2805 80.58 40.5348 80.58 40.8V41.8C80.58 42.0653 80.4746 42.3196 80.2871 42.5072C80.0995 42.6947 79.8452 42.8 79.58 42.8C79.3147 42.8 79.0604 42.6947 78.8728 42.5072C78.6853 42.3196 78.58 42.0653 78.58 41.8V40.8C78.58 40.5348 78.6853 40.2805 78.8728 40.0929ZM83.08 37.78C82.8147 37.78 82.5604 37.8854 82.3728 38.0729C82.1853 38.2605 82.08 38.5148 82.08 38.78V39.78C82.08 40.0452 82.1853 40.2996 82.3728 40.4871C82.5604 40.6747 82.8147 40.78 83.08 40.78C83.3452 40.78 83.5995 40.6747 83.7871 40.4871C83.9746 40.2996 84.08 40.0452 84.08 39.78V38.78C84.08 38.5148 83.9746 38.2605 83.7871 38.0729C83.5995 37.8854 83.3452 37.78 83.08 37.78ZM85.8728 36.0529C86.0604 35.8654 86.3147 35.76 86.58 35.76C86.8452 35.76 87.0995 35.8654 87.2871 36.0529C87.4746 36.2404 87.58 36.4948 87.58 36.76V37.76C87.58 38.0252 87.4746 38.2796 87.2871 38.4671C87.0995 38.6547 86.8452 38.76 86.58 38.76C86.3147 38.76 86.0604 38.6547 85.8728 38.4671C85.6853 38.2796 85.58 38.0252 85.58 37.76V36.76C85.58 36.4948 85.6853 36.2404 85.8728 36.0529ZM90.08 33.74C89.8147 33.74 89.5604 33.8453 89.3728 34.0329C89.1853 34.2204 89.08 34.4748 89.08 34.74V35.74C89.08 36.0052 89.1853 36.2596 89.3728 36.4471C89.5604 36.6346 89.8147 36.74 90.08 36.74C90.3452 36.74 90.5995 36.6346 90.7871 36.4471C90.9746 36.2596 91.08 36.0052 91.08 35.74V34.74C91.08 34.4748 90.9746 34.2204 90.7871 34.0329C90.5995 33.8453 90.3452 33.74 90.08 33.74ZM12 55.1101V50.9301C12 50.6648 11.8946 50.4105 11.7071 50.2229C11.5196 50.0354 11.2652 49.9301 11 49.9301C10.7348 49.9301 10.4804 50.0354 10.2929 50.2229C10.1054 50.4105 10 50.6648 10 50.9301V55.1101C10 55.3753 10.1054 55.6296 10.2929 55.8172C10.4804 56.0047 10.7348 56.1101 11 56.1101C11.2652 56.1101 11.5196 56.0047 11.7071 55.8172C11.8946 55.6296 12 55.3753 12 55.1101ZM15.4399 52.9399V57.1199C15.4399 57.3852 15.3346 57.6395 15.147 57.827C14.9595 58.0146 14.7052 58.1199 14.4399 58.1199C14.1747 58.1199 13.9204 58.0146 13.7328 57.827C13.5453 57.6395 13.4399 57.3852 13.4399 57.1199V52.9399C13.4399 52.6747 13.5453 52.4204 13.7328 52.2328C13.9204 52.0453 14.1747 51.9399 14.4399 51.9399C14.7052 51.9399 14.9595 52.0453 15.147 52.2328C15.3346 52.4204 15.4399 52.6747 15.4399 52.9399ZM18.92 59.13V55C18.92 54.7348 18.8147 54.4804 18.6272 54.2929C18.4396 54.1054 18.1853 54 17.92 54C17.6548 54 17.4005 54.1054 17.2129 54.2929C17.0254 54.4804 16.92 54.7348 16.92 55V59.18C16.92 59.4452 17.0254 59.6996 17.2129 59.8871C17.4005 60.0746 17.6548 60.18 17.92 60.18C18.1853 60.18 18.4396 60.0746 18.6272 59.8871C18.8147 59.6996 18.92 59.4452 18.92 59.18V59.13ZM22.41 57V61.14V61.18C22.41 61.4452 22.3047 61.6996 22.1171 61.8871C21.9296 62.0746 21.6753 62.18 21.41 62.18C21.1448 62.18 20.8905 62.0746 20.7029 61.8871C20.5154 61.6996 20.41 61.4452 20.41 61.18V57C20.41 56.7348 20.5154 56.4804 20.7029 56.2929C20.8905 56.1054 21.1448 56 21.41 56C21.6753 56 21.9296 56.1054 22.1171 56.2929C22.3047 56.4804 22.41 56.7348 22.41 57ZM54.51 74.7499C54.7901 74.9096 55.1075 74.9924 55.43 74.9899C55.8647 74.9817 56.2894 74.8574 56.66 74.6299C57.2786 74.2393 57.7942 73.7056 58.1632 73.0738C58.5322 72.442 58.7437 71.7307 58.78 70.9999C58.8075 70.6248 58.7288 70.2496 58.5528 69.9172C58.3767 69.5848 58.1106 69.3089 57.7848 69.1209C57.459 68.933 57.0868 68.8407 56.711 68.8547C56.3352 68.8686 55.9709 68.9883 55.66 69.1999C55.4312 69.3319 55.264 69.5489 55.1946 69.8037C55.1253 70.0585 55.1596 70.3303 55.29 70.5599C55.3553 70.6745 55.4426 70.7751 55.547 70.8557C55.6513 70.9364 55.7706 70.9957 55.898 71.0301C56.0253 71.0645 56.1582 71.0733 56.289 71.0561C56.4197 71.0389 56.5458 70.9961 56.66 70.9299L56.77 70.8699C56.7753 70.9131 56.7753 70.9568 56.77 70.9999C56.739 71.3862 56.6224 71.7607 56.4287 72.0962C56.235 72.4318 55.9689 72.72 55.65 72.9399L55.54 72.9999C55.5346 72.9568 55.5346 72.9131 55.54 72.8699C55.54 72.6047 55.4346 72.3504 55.2471 72.1628C55.0595 71.9753 54.8052 71.8699 54.54 71.8699C54.2747 71.8699 54.0204 71.9753 53.8329 72.1628C53.6453 72.3504 53.54 72.6047 53.54 72.8699C53.5229 73.2408 53.6035 73.6096 53.7737 73.9396C53.9439 74.2695 54.1978 74.5489 54.51 74.7499ZM61.1601 71.68C60.8376 71.6824 60.5202 71.5996 60.2401 71.44C59.9264 71.2415 59.6701 70.9646 59.4964 70.6366C59.3228 70.3086 59.2379 69.9409 59.2501 69.57C59.2501 69.3047 59.3554 69.0504 59.5429 68.8629C59.7305 68.6753 59.9848 68.57 60.2501 68.57C60.5153 68.57 60.7696 68.6753 60.9572 68.8629C61.1447 69.0504 61.2501 69.3047 61.2501 69.57V69.7L61.3601 69.64C61.6811 69.4221 61.9486 69.1344 62.1425 68.7984C62.3365 68.4624 62.4519 68.0869 62.4801 67.7V67.58H62.3601C62.1316 67.7112 61.8607 67.747 61.606 67.6796C61.3514 67.6122 61.1336 67.447 61.0001 67.22C60.9343 67.1052 60.892 66.9786 60.8756 66.8474C60.8591 66.7162 60.8688 66.5831 60.9042 66.4557C60.9395 66.3283 60.9998 66.2091 61.0815 66.1052C61.1631 66.0012 61.2646 65.9145 61.3801 65.85C61.691 65.6383 62.0553 65.5187 62.4311 65.5047C62.8069 65.4907 63.1791 65.583 63.5049 65.7709C63.8307 65.9589 64.0968 66.2349 64.2729 66.5672C64.4489 66.8996 64.5276 67.2749 64.5001 67.65C64.4718 68.3893 64.264 69.1107 63.8946 69.7518C63.5253 70.393 63.0055 70.9346 62.3801 71.33C62.0108 71.5509 61.5903 71.6716 61.1601 71.68ZM66 68.1299C66.2807 68.2883 66.5977 68.371 66.92 68.3699C67.342 68.3521 67.7522 68.2246 68.11 67.9999C68.734 67.6055 69.253 67.0655 69.6223 66.4262C69.9915 65.7869 70.2001 65.0676 70.23 64.3299C70.2596 63.954 70.1824 63.5774 70.0072 63.2435C69.832 62.9096 69.5659 62.632 69.2398 62.4428C68.9136 62.2535 68.5406 62.1604 68.1637 62.174C67.7869 62.1877 67.4216 62.3076 67.11 62.5199C66.9957 62.5856 66.8955 62.6731 66.8151 62.7775C66.7347 62.8819 66.6756 63.0011 66.6412 63.1283C66.6069 63.2555 66.5979 63.3883 66.6148 63.5189C66.6318 63.6496 66.6743 63.7757 66.74 63.8899C66.8056 64.0042 66.8931 64.1044 66.9975 64.1848C67.1019 64.2652 67.2211 64.3243 67.3483 64.3587C67.4755 64.393 67.6083 64.402 67.739 64.3851C67.8696 64.3681 67.9957 64.3256 68.11 64.2599L68.22 64.1999C68.2257 64.2431 68.2257 64.2868 68.22 64.3299C68.1897 64.7163 68.0734 65.0911 67.8796 65.4267C67.6858 65.7624 67.4194 66.0505 67.1 66.2699H66.99C66.9841 66.2302 66.9841 66.1897 66.99 66.1499C66.99 65.8847 66.8846 65.6304 66.6971 65.4428C66.5095 65.2553 66.2552 65.1499 65.99 65.1499C65.7247 65.1499 65.4704 65.2553 65.2828 65.4428C65.0953 65.6304 64.99 65.8847 64.99 66.1499C64.955 66.5416 65.0313 66.9351 65.2099 67.2853C65.3886 67.6356 65.6624 67.9283 66 68.1299ZM76.7871 61.3471C76.5995 61.5347 76.3452 61.64 76.08 61.64C75.8147 61.64 75.5604 61.5347 75.3728 61.3471C75.1853 61.1596 75.08 60.9052 75.08 60.64V59.64C75.08 59.3748 75.1853 59.1204 75.3728 58.9329C75.5604 58.7454 75.8147 58.64 76.08 58.64C76.3452 58.64 76.5995 58.7454 76.7871 58.9329C76.9746 59.1204 77.08 59.3748 77.08 59.64V60.64C77.08 60.9052 76.9746 61.1596 76.7871 61.3471ZM79.58 59.62C79.8452 59.62 80.0995 59.5146 80.2871 59.3271C80.4746 59.1396 80.58 58.8852 80.58 58.62V57.62C80.58 57.3548 80.4746 57.1004 80.2871 56.9129C80.0995 56.7253 79.8452 56.62 79.58 56.62C79.3147 56.62 79.0604 56.7253 78.8728 56.9129C78.6853 57.1004 78.58 57.3548 78.58 57.62V58.62C78.58 58.8852 78.6853 59.1396 78.8728 59.3271C79.0604 59.5146 79.3147 59.62 79.58 59.62ZM83.7871 57.3071C83.5995 57.4946 83.3452 57.6 83.08 57.6C82.8147 57.6 82.5604 57.4946 82.3728 57.3071C82.1853 57.1195 82.08 56.8652 82.08 56.6V55.6C82.08 55.3348 82.1853 55.0804 82.3728 54.8929C82.5604 54.7053 82.8147 54.6 83.08 54.6C83.3452 54.6 83.5995 54.7053 83.7871 54.8929C83.9746 55.0804 84.08 55.3348 84.08 55.6V56.6C84.08 56.8652 83.9746 57.1195 83.7871 57.3071ZM86.58 55.58C86.8452 55.58 87.0995 55.4746 87.2871 55.2871C87.4746 55.0995 87.58 54.8452 87.58 54.58V53.58C87.58 53.3147 87.4746 53.0604 87.2871 52.8728C87.0995 52.6853 86.8452 52.58 86.58 52.58C86.3147 52.58 86.0604 52.6853 85.8728 52.8728C85.6853 53.0604 85.58 53.3147 85.58 53.58V54.58C85.58 54.8452 85.6853 55.0995 85.8728 55.2871C86.0604 55.4746 86.3147 55.58 86.58 55.58ZM90.7871 53.2672C90.5995 53.4547 90.3452 53.5601 90.08 53.5601C89.8147 53.5601 89.5604 53.4547 89.3728 53.2672C89.1853 53.0796 89.08 52.8253 89.08 52.5601V51.5601C89.08 51.2948 89.1853 51.0405 89.3728 50.853C89.5604 50.6654 89.8147 50.5601 90.08 50.5601C90.3452 50.5601 90.5995 50.6654 90.7871 50.853C90.9746 51.0405 91.08 51.2948 91.08 51.5601V52.5601C91.08 52.8253 90.9746 53.0796 90.7871 53.2672ZM12 72V67.78C12 67.5148 11.8946 67.2605 11.7071 67.0729C11.5196 66.8854 11.2652 66.78 11 66.78C10.7348 66.78 10.4804 66.8854 10.2929 67.0729C10.1054 67.2605 10 67.5148 10 67.78V72C10 72.2652 10.1054 72.5196 10.2929 72.7071C10.4804 72.8947 10.7348 73 11 73C11.2652 73 11.5196 72.8947 11.7071 72.7071C11.8946 72.5196 12 72.2652 12 72ZM15.4399 69.79V74C15.4399 74.2653 15.3346 74.5196 15.147 74.7071C14.9595 74.8947 14.7052 75 14.4399 75C14.1747 75 13.9204 74.8947 13.7328 74.7071C13.5453 74.5196 13.4399 74.2653 13.4399 74V69.79C13.4399 69.5248 13.5453 69.2705 13.7328 69.0829C13.9204 68.8954 14.1747 68.79 14.4399 68.79C14.7052 68.79 14.9595 68.8954 15.147 69.0829C15.3346 69.2705 15.4399 69.5248 15.4399 69.79ZM18.92 76V71.8C18.92 71.5348 18.8147 71.2805 18.6272 71.0929C18.4396 70.9054 18.1853 70.8 17.92 70.8C17.6548 70.8 17.4005 70.9054 17.2129 71.0929C17.0254 71.2805 16.92 71.5348 16.92 71.8V76C16.92 76.2653 17.0254 76.5196 17.2129 76.7072C17.4005 76.8947 17.6548 77 17.92 77C18.1853 77 18.4396 76.8947 18.6272 76.7072C18.8147 76.5196 18.92 76.2653 18.92 76ZM22.41 73.8101V78.0001C22.41 78.2653 22.3047 78.5196 22.1171 78.7072C21.9296 78.8947 21.6753 79.0001 21.41 79.0001C21.1448 79.0001 20.8905 78.8947 20.7029 78.7072C20.5154 78.5196 20.41 78.2653 20.41 78.0001V73.8101C20.41 73.5448 20.5154 73.2905 20.7029 73.103C20.8905 72.9154 21.1448 72.8101 21.41 72.8101C21.6753 72.8101 21.9296 72.9154 22.1171 73.103C22.3047 73.2905 22.41 73.5448 22.41 73.8101ZM54.51 91.59C54.7902 91.7496 55.1076 91.8324 55.43 91.83C55.8648 91.8217 56.2894 91.6974 56.66 91.47C57.2859 91.0775 57.8062 90.5379 58.1757 89.8982C58.5452 89.2585 58.7527 88.5382 58.78 87.8C58.8076 87.4249 58.7289 87.0496 58.5528 86.7173C58.3768 86.3849 58.1106 86.1089 57.7849 85.9209C57.4591 85.733 57.0869 85.6407 56.7111 85.6547C56.3352 85.6687 55.9709 85.7884 55.66 86C55.5405 86.0625 55.4349 86.1485 55.3495 86.2529C55.2641 86.3573 55.2007 86.4779 55.1632 86.6074C55.1256 86.737 55.1146 86.8728 55.1308 87.0067C55.1471 87.1405 55.1903 87.2698 55.2578 87.3865C55.3253 87.5033 55.4157 87.6052 55.5236 87.6861C55.6315 87.767 55.7546 87.8253 55.8856 87.8574C56.0166 87.8894 56.1528 87.8947 56.2859 87.8728C56.4189 87.8509 56.5462 87.8023 56.66 87.73H56.77C56.7759 87.7698 56.7759 87.8102 56.77 87.85C56.739 88.2362 56.6225 88.6107 56.4287 88.9463C56.235 89.2818 55.969 89.57 55.65 89.79L55.54 89.85C55.5347 89.8068 55.5347 89.7632 55.54 89.72C55.54 89.4548 55.4347 89.2004 55.2471 89.0129C55.0596 88.8253 54.8052 88.72 54.54 88.72C54.2748 88.72 54.0205 88.8253 53.8329 89.0129C53.6454 89.2004 53.54 89.4548 53.54 89.72C53.5247 90.0892 53.6062 90.456 53.7763 90.784C53.9465 91.112 54.1994 91.3899 54.51 91.59ZM61.1601 88.52C60.8376 88.5224 60.5202 88.4396 60.2401 88.28C59.9102 88.0764 59.6432 87.7856 59.4685 87.4397C59.2937 87.0938 59.2181 86.7062 59.2501 86.32C59.2501 86.0548 59.3554 85.8004 59.5429 85.6129C59.7305 85.4253 59.9848 85.32 60.2501 85.32C60.5153 85.32 60.7696 85.4253 60.9572 85.6129C61.1447 85.8004 61.2501 86.0548 61.2501 86.32V86.44H61.3601C61.6795 86.2206 61.9459 85.9324 62.1397 85.5968C62.3335 85.2611 62.4498 84.8864 62.4801 84.5V84.37L62.3601 84.43C62.1304 84.5604 61.8586 84.5946 61.6038 84.5253C61.349 84.456 61.132 84.2887 61.0001 84.06C60.9343 83.9453 60.892 83.8186 60.8756 83.6874C60.8591 83.5563 60.8688 83.4231 60.9042 83.2957C60.9395 83.1683 60.9998 83.0491 61.0815 82.9452C61.1631 82.8412 61.2646 82.7545 61.3801 82.69C61.6917 82.4777 62.057 82.3577 62.4338 82.3441C62.8106 82.3304 63.1837 82.4236 63.5098 82.6128C63.836 82.802 64.102 83.0796 64.2773 83.4135C64.4525 83.7474 64.5297 84.1241 64.5001 84.5C64.4702 85.2376 64.2616 85.957 63.8923 86.5963C63.5231 87.2355 63.0041 87.7756 62.3801 88.17C62.0108 88.3909 61.5903 88.5116 61.1601 88.52ZM65.9999 85C66.2806 85.1584 66.5977 85.2411 66.9199 85.24C67.3547 85.2318 67.7793 85.1075 68.1499 84.88C68.7746 84.4862 69.294 83.9463 69.6634 83.3069C70.0327 82.6675 70.2409 81.9479 70.2699 81.21C70.2975 80.8349 70.2188 80.4597 70.0428 80.1273C69.8667 79.7949 69.6006 79.5189 69.2748 79.331C68.949 79.143 68.5768 79.0508 68.201 79.0647C67.8251 79.0787 67.4609 79.1984 67.1499 79.41C67.0304 79.4725 66.9248 79.5586 66.8394 79.663C66.754 79.7674 66.6906 79.888 66.6531 80.0175C66.6155 80.147 66.6045 80.2828 66.6208 80.4167C66.637 80.5506 66.6802 80.6798 66.7477 80.7966C66.8152 80.9133 66.9056 81.0152 67.0135 81.0961C67.1214 81.1771 67.2446 81.2353 67.3756 81.2674C67.5065 81.2995 67.6427 81.3047 67.7758 81.2829C67.9089 81.261 68.0361 81.2124 68.1499 81.14L68.2599 81.08C68.2653 81.1232 68.2653 81.1669 68.2599 81.21C68.2311 81.5968 68.1154 81.972 67.9215 82.3079C67.7276 82.6438 67.4604 82.9316 67.1399 83.15L67.0299 83.21C67.0246 83.1669 67.0246 83.1232 67.0299 83.08C67.0299 82.8148 66.9246 82.5605 66.737 82.3729C66.5495 82.1854 66.2952 82.08 66.0299 82.08C65.7647 82.08 65.5104 82.1854 65.3228 82.3729C65.1353 82.5605 65.0299 82.8148 65.0299 83.08C65.0077 83.4572 65.0858 83.8335 65.2562 84.1708C65.4265 84.508 65.6832 84.7941 65.9999 85ZM76.7871 78.1971C76.5995 78.3846 76.3452 78.49 76.08 78.49C75.8147 78.49 75.5604 78.3846 75.3728 78.1971C75.1853 78.0096 75.08 77.7552 75.08 77.49V76.49C75.08 76.2248 75.1853 75.9704 75.3728 75.7829C75.5604 75.5953 75.8147 75.49 76.08 75.49C76.3452 75.49 76.5995 75.5953 76.7871 75.7829C76.9746 75.9704 77.08 76.2248 77.08 76.49V77.49C77.08 77.7552 76.9746 78.0096 76.7871 78.1971ZM79.58 76.47C79.8452 76.47 80.0995 76.3646 80.2871 76.1771C80.4746 75.9895 80.58 75.7352 80.58 75.47V74.47C80.58 74.2048 80.4746 73.9504 80.2871 73.7629C80.0995 73.5753 79.8452 73.47 79.58 73.47C79.3147 73.47 79.0604 73.5753 78.8728 73.7629C78.6853 73.9504 78.58 74.2048 78.58 74.47V75.47C78.58 75.7352 78.6853 75.9895 78.8728 76.1771C79.0604 76.3646 79.3147 76.47 79.58 76.47ZM83.7871 74.1571C83.5995 74.3446 83.3452 74.45 83.08 74.45C82.8147 74.45 82.5604 74.3446 82.3728 74.1571C82.1853 73.9695 82.08 73.7152 82.08 73.45V72.45C82.08 72.1847 82.1853 71.9304 82.3728 71.7428C82.5604 71.5553 82.8147 71.45 83.08 71.45C83.3452 71.45 83.5995 71.5553 83.7871 71.7428C83.9746 71.9304 84.08 72.1847 84.08 72.45V73.45C84.08 73.7152 83.9746 73.9695 83.7871 74.1571ZM86.58 72.4301C86.8452 72.4301 87.0995 72.3247 87.2871 72.1372C87.4746 71.9496 87.58 71.6953 87.58 71.4301V70.4301C87.58 70.1648 87.4746 69.9105 87.2871 69.7229C87.0995 69.5354 86.8452 69.4301 86.58 69.4301C86.3147 69.4301 86.0604 69.5354 85.8728 69.7229C85.6853 69.9105 85.58 70.1648 85.58 70.4301V71.4301C85.58 71.6953 85.6853 71.9496 85.8728 72.1372C86.0604 72.3247 86.3147 72.4301 86.58 72.4301ZM90.7871 70.1071C90.5995 70.2947 90.3452 70.4 90.08 70.4C89.8147 70.4 89.5604 70.2947 89.3728 70.1071C89.1853 69.9196 89.08 69.6652 89.08 69.4V68.4C89.08 68.1348 89.1853 67.8805 89.3728 67.6929C89.5604 67.5054 89.8147 67.4 90.08 67.4C90.3452 67.4 90.5995 67.5054 90.7871 67.6929C90.9746 67.8805 91.08 68.1348 91.08 68.4V69.4C91.08 69.6652 90.9746 69.9196 90.7871 70.1071Z" fill="#28CDCD"/>
</svg>
