<svg width="100" height="100" viewBox="0 0 100 100" fill="none" xmlns="http://www.w3.org/2000/svg">
<path fill-rule="evenodd" clip-rule="evenodd" d="M80.9 63.9301V30.3201C80.9097 30.2304 80.9097 30.1399 80.9 30.0501C80.8704 29.9412 80.8194 29.8392 80.75 29.7501V29.6801C80.6774 29.5889 80.5894 29.511 80.49 29.4501L60.94 18.3301V5.26013C60.9553 5.16407 60.9553 5.06619 60.94 4.97013C60.9073 4.87663 60.8601 4.78888 60.8 4.71013L60.75 4.65013C60.681 4.56463 60.5961 4.49331 60.5 4.44013L56.61 2.44013C56.458 2.35236 56.2855 2.30615 56.11 2.30615C55.9345 2.30615 55.762 2.35236 55.61 2.44013L18.48 23.7501C18.3274 23.8382 18.2008 23.9651 18.113 24.1179C18.0252 24.2707 17.9793 24.4439 17.98 24.6201V94.7401C17.9796 94.9238 18.0298 95.104 18.125 95.2609C18.2203 95.4179 18.3569 95.5457 18.52 95.6301L22.41 97.6301H22.54C22.5698 97.6344 22.6001 97.6344 22.63 97.6301C22.7097 97.6398 22.7903 97.6398 22.87 97.6301C22.9563 97.6405 23.0436 97.6405 23.13 97.6301H23.22C23.2722 97.6162 23.3226 97.5961 23.37 97.5701L32.43 92.3401C32.5495 92.2776 32.6551 92.1916 32.7405 92.0872C32.8259 91.9828 32.8893 91.8622 32.9269 91.7327C32.9644 91.6031 32.9754 91.4674 32.9592 91.3335C32.9429 91.1996 32.8997 91.0704 32.8322 90.9536C32.7647 90.8368 32.6743 90.7349 32.5664 90.654C32.4585 90.5731 32.3354 90.5148 32.2044 90.4828C32.0734 90.4507 31.9372 90.4454 31.8042 90.4673C31.6711 90.4892 31.5438 90.5378 31.43 90.6101L23.87 94.9701V84.8501L26.16 86.1601C25.3863 87.0521 24.9385 88.1804 24.89 89.3601C24.8689 89.779 24.9608 90.1959 25.1561 90.5671C25.3514 90.9383 25.6428 91.2502 26 91.4701C26.3033 91.6465 26.6492 91.7365 27 91.7301C27.4794 91.72 27.9481 91.5857 28.36 91.3401C28.5907 91.2075 28.7593 90.9887 28.8287 90.7318C28.8981 90.4748 28.8626 90.2009 28.73 89.9701C28.5974 89.7394 28.3785 89.5708 28.1216 89.5014C27.8647 89.432 27.5907 89.4675 27.36 89.6001C27.2527 89.6628 27.1386 89.7132 27.02 89.7501C26.955 89.631 26.9272 89.4952 26.94 89.3601C27 88.5242 27.3796 87.7435 28 87.1801L42.37 95.3901H42.51H42.61C42.6927 95.4045 42.7773 95.4045 42.86 95.3901H43H43.12H43.18C43.2434 95.372 43.304 95.345 43.36 95.3101L69.19 80.4601C69.4077 80.3218 69.5634 80.1046 69.6248 79.8541C69.6862 79.6036 69.6484 79.3391 69.5193 79.1158C69.3902 78.8925 69.1798 78.7277 68.9321 78.6558C68.6844 78.584 68.4185 78.6106 68.19 78.7301L43.82 92.7901V52.3001L78.9 32.0501V61.9101L68.66 52.0001C66.74 50.1401 63.78 50.0801 60.75 51.8401C55.85 54.6601 51.87 61.5601 51.87 67.2101C51.87 70.6801 53.38 73.2101 55.92 73.9601L71.92 78.6901C72.2935 78.7991 72.6809 78.853 73.07 78.8501C74.1311 78.824 75.1663 78.5169 76.07 77.9601C77.5392 77.0735 78.7928 75.8711 79.74 74.4401H79.83L80.4 74.0001C80.5526 73.912 80.6792 73.7852 80.767 73.6324C80.8548 73.4796 80.9007 73.3063 80.9 73.1301V72.2301C81.5942 70.7409 81.9689 69.1229 82 67.4801C82.0597 66.2046 81.6705 64.9484 80.9 63.9301ZM42.82 50.5701L26.38 41.1701C26.2657 41.1045 26.1397 41.062 26.009 41.045C25.8783 41.0281 25.7456 41.037 25.6184 41.0714C25.3614 41.1408 25.1426 41.3094 25.01 41.5401C24.8774 41.7709 24.8419 42.0448 24.9113 42.3018C24.9806 42.5587 25.1493 42.7775 25.38 42.9101L41.82 52.3001V92.8001L23.37 82.2601H23.31C23.2533 82.2313 23.1926 82.2111 23.13 82.2001C23.0637 82.1907 22.9963 82.1907 22.93 82.2001H22.87H22.75H22.55C22.4886 82.2201 22.431 82.2505 22.38 82.2901L22.22 82.3901C22.1713 82.4388 22.1277 82.4925 22.09 82.5501L22 82.6401C21.9962 82.6566 21.9962 82.6737 22 82.6901C21.9723 82.7518 21.9489 82.8152 21.93 82.8801V83.0801V83.1401V95.1401L20.04 94.1401V25.2001L56.08 4.36013L57.87 5.30013L22.87 25.5201L22.2 25.1701C22.083 25.0982 21.9524 25.0511 21.8163 25.0318C21.6803 25.0126 21.5418 25.0215 21.4094 25.0582C21.277 25.0948 21.1535 25.1584 21.0468 25.2449C20.94 25.3313 20.8522 25.4389 20.7889 25.5608C20.7255 25.6827 20.6879 25.8163 20.6785 25.9534C20.6691 26.0904 20.688 26.228 20.7341 26.3574C20.7802 26.4868 20.8524 26.6053 20.9464 26.7056C21.0403 26.8059 21.1538 26.8857 21.28 26.9401L21.89 27.2601V40.3201V40.3801V40.5701C21.9073 40.6355 21.9307 40.6991 21.96 40.7601V40.8201C21.9986 40.8917 22.0493 40.956 22.11 41.0101C22.1927 41.0879 22.2872 41.152 22.39 41.2001H22.47C22.5784 41.2431 22.6934 41.2668 22.81 41.2701C22.9297 41.2662 23.048 41.2425 23.16 41.2001H23.24H23.31L60 20.0701L77.89 30.3201L42.82 50.5701ZM58.94 7.00013V18.3401L23.87 38.5901V27.2401L58.94 7.00013ZM53.87 67.1701C53.8719 66.836 53.8919 66.5021 53.93 66.1701L69.09 72.4101V72.4102C69.09 72.6202 69.09 72.8402 69.01 73.0501L53.91 68.0501L53.9081 68.0211C53.8887 67.7314 53.87 67.4508 53.87 67.1701ZM56.48 72.0001C56.0621 71.8697 55.6753 71.6551 55.3434 71.3696C55.0115 71.0842 54.7415 70.7338 54.55 70.3401L69.09 75.1301C69.1283 75.3493 69.1783 75.5663 69.24 75.7801L56.48 72.0001ZM75 76.1901C74.2542 76.6987 73.3379 76.8927 72.45 76.7301C71.51 76.4501 70.97 75.4101 70.97 73.8601C71.0771 72.1229 71.584 70.4338 72.4513 68.9247C73.3186 67.4156 74.5228 66.1272 75.97 65.1601L76.14 65.0701C76.2562 65.0084 76.3591 64.9244 76.4429 64.8229C76.5266 64.7214 76.5896 64.6044 76.6281 64.4786C76.6667 64.3527 76.68 64.2206 76.6675 64.0896C76.6549 63.9586 76.6167 63.8313 76.555 63.7151C76.4933 63.5989 76.4093 63.496 76.3078 63.4122C76.2063 63.3285 76.0893 63.2655 75.9634 63.227C75.8376 63.1885 75.7054 63.1751 75.5744 63.1876C75.4435 63.2002 75.3162 63.2384 75.2 63.3001L74.97 63.4301C72.4149 65.0691 70.5067 67.5427 69.57 70.4301L54.27 64.1001C55.27 59.8701 58.27 55.5401 61.75 53.5301C64 52.2301 66.01 52.1801 67.27 53.4001L79.23 65.0001C79.8027 65.6934 80.0793 66.5844 80 67.4801C79.8944 69.2191 79.3882 70.9102 78.5208 72.4211C77.6534 73.9321 76.4484 75.222 75 76.1901ZM26 32.8602C26.3023 33.0401 26.6482 33.1335 27 33.1302C27.4802 33.1162 27.9486 32.9784 28.36 32.7302C28.4795 32.6677 28.5851 32.5816 28.6705 32.4772C28.7559 32.3728 28.8193 32.2522 28.8569 32.1227C28.8944 31.9932 28.9054 31.8574 28.8892 31.7235C28.8729 31.5896 28.8297 31.4604 28.7622 31.3436C28.6947 31.2269 28.6043 31.125 28.4964 31.0441C28.3885 30.9631 28.2654 30.9049 28.1344 30.8728C28.0034 30.8407 27.8672 30.8355 27.7342 30.8573C27.6011 30.8792 27.4738 30.9278 27.36 31.0002C27.2515 31.0578 27.1376 31.1047 27.02 31.1402C26.955 31.0211 26.9271 30.8852 26.94 30.7502C26.9743 30.2592 27.12 29.7825 27.366 29.3563C27.6121 28.93 27.952 28.5654 28.36 28.2902C28.4685 28.2326 28.5824 28.1857 28.7 28.1502C28.765 28.2693 28.7928 28.4051 28.78 28.5402C28.78 28.8054 28.8853 29.0597 29.0729 29.2473C29.2604 29.4348 29.5148 29.5402 29.78 29.5402C30.0452 29.5402 30.2996 29.4348 30.4871 29.2473C30.6746 29.0597 30.78 28.8054 30.78 28.5402C30.8348 28.1209 30.7647 27.6948 30.5786 27.3151C30.3924 26.9354 30.0985 26.6191 29.7335 26.4056C29.3684 26.1922 28.9486 26.0911 28.5264 26.115C28.1043 26.1389 27.6985 26.2868 27.36 26.5402C26.6478 26.9908 26.0556 27.6074 25.6341 28.3372C25.2126 29.067 24.9744 29.8881 24.94 30.7302C24.909 31.1477 24.9911 31.5658 25.1776 31.9407C25.3642 32.3155 25.6482 32.6331 26 32.8602ZM54.1501 17.4201C53.7993 17.4264 53.4534 17.3365 53.1501 17.1601C52.796 16.933 52.5103 16.6139 52.3236 16.2369C52.1369 15.86 52.0562 15.4394 52.0901 15.0201C52.1245 14.178 52.3627 13.3569 52.7842 12.6271C53.2057 11.8973 53.7979 11.2807 54.5101 10.8301C54.8544 10.5958 55.2562 10.46 55.672 10.4371C56.0879 10.4142 56.5021 10.5051 56.8701 10.7001C57.2179 10.9238 57.4996 11.2365 57.686 11.6058C57.8723 11.975 57.9566 12.3873 57.9301 12.8001C57.9301 13.0653 57.8247 13.3196 57.6372 13.5072C57.4496 13.6947 57.1953 13.8001 56.9301 13.8001C56.6649 13.8001 56.4105 13.6947 56.223 13.5072C56.0354 13.3196 55.9301 13.0653 55.9301 12.8001C55.9421 12.6682 55.9142 12.5358 55.8501 12.4201C55.7317 12.4535 55.6177 12.5005 55.5101 12.5601C55.1021 12.8353 54.7622 13.1999 54.5161 13.6262C54.2701 14.0524 54.1244 14.5291 54.0901 15.0201C54.077 15.154 54.1012 15.289 54.1601 15.4101C54.2814 15.376 54.3987 15.3291 54.5101 15.2701C54.7385 15.1389 55.0094 15.1031 55.2641 15.1705C55.5187 15.2379 55.7365 15.403 55.8701 15.6301C55.9366 15.7436 55.9801 15.8692 55.998 15.9995C56.0159 16.1299 56.0079 16.2625 55.9745 16.3898C55.941 16.5171 55.8828 16.6365 55.8031 16.7412C55.7234 16.8459 55.6238 16.9339 55.5101 17.0001C55.1011 17.2561 54.6323 17.4009 54.1501 17.4201ZM61.3599 49.1702C67.6999 45.5102 72.8399 48.4802 72.8399 55.8002L77.0799 53.3502C77.0799 44.6702 70.9899 41.1602 63.4799 45.4902C59.4037 47.9446 56.0176 51.3939 53.6388 55.5147C51.264 59.6287 49.971 64.2775 49.8803 69.0265C50.0116 62.298 55.0073 52.8259 61.3599 49.1702ZM48.5999 53.1901C48.4822 53.2294 48.3683 53.2796 48.2599 53.3401C47.8503 53.6137 47.5092 53.9779 47.263 54.4045C47.0168 54.8311 46.872 55.3086 46.8399 55.8001C46.8309 55.9349 46.8586 56.0697 46.9199 56.1901C46.9199 56.1824 46.939 56.1762 46.9743 56.1647C47.0313 56.1463 47.1304 56.1141 47.2599 56.0401C47.3737 55.9677 47.501 55.9191 47.6341 55.8973C47.7672 55.8754 47.9033 55.8806 48.0343 55.9127C48.1653 55.9448 48.2884 56.003 48.3963 56.084C48.5042 56.1649 48.5946 56.2668 48.6621 56.3836C48.7296 56.5003 48.7728 56.6295 48.7891 56.7634C48.8053 56.8973 48.7943 57.0331 48.7568 57.1626C48.7192 57.2921 48.6558 57.4127 48.5704 57.5171C48.485 57.6215 48.3794 57.7076 48.2599 57.7701C47.8511 58.024 47.3811 58.1622 46.8999 58.1701C46.5495 58.1725 46.2047 58.0828 45.8999 57.9101C45.552 57.6839 45.2705 57.3694 45.0842 56.9986C44.898 56.6278 44.8136 56.2142 44.8399 55.8001C44.8727 54.9563 45.1101 54.1331 45.5317 53.4015C45.9533 52.6698 46.5464 52.0516 47.2599 51.6001C47.6063 51.3709 48.0075 51.2381 48.4223 51.2152C48.837 51.1924 49.2504 51.2803 49.6199 51.4701C49.9693 51.6947 50.252 52.009 50.4384 52.3801C50.6249 52.7513 50.7083 53.1657 50.6799 53.5801C50.6799 53.8453 50.5745 54.0996 50.387 54.2872C50.1995 54.4747 49.9451 54.5801 49.6799 54.5801C49.4147 54.5801 49.1603 54.4747 48.9728 54.2872C48.7853 54.0996 48.6799 53.8453 48.6799 53.5801C48.6927 53.445 48.6649 53.3092 48.5999 53.1901ZM75.4599 37.6301C75.5675 37.5706 75.6816 37.5236 75.7999 37.4901C75.8649 37.6092 75.8927 37.7451 75.8799 37.8801C75.8799 38.1454 75.9853 38.3997 76.1728 38.5872C76.3603 38.7748 76.6147 38.8801 76.8799 38.8801C77.1451 38.8801 77.3995 38.7748 77.587 38.5872C77.7745 38.3997 77.8799 38.1454 77.8799 37.8801C77.9347 37.4609 77.8646 37.0347 77.6785 36.6551C77.4924 36.2754 77.1984 35.9591 76.8334 35.7456C76.4684 35.5321 76.0485 35.4311 75.6264 35.455C75.2042 35.4789 74.7985 35.6268 74.4599 35.8801C73.7376 36.328 73.1358 36.9458 72.707 37.6796C72.2782 38.4134 72.0355 39.241 71.9999 40.0901C71.9767 40.5082 72.0667 40.9248 72.2602 41.2961C72.4538 41.6674 72.7439 41.9797 73.0999 42.2001C73.4032 42.3766 73.7491 42.4665 74.0999 42.4601C74.5794 42.4501 75.048 42.3157 75.4599 42.0701C75.5737 42.004 75.6732 41.916 75.7529 41.8113C75.8326 41.7066 75.8908 41.5871 75.9243 41.4599C75.9577 41.3326 75.9657 41.2 75.9478 41.0696C75.9299 40.9392 75.8864 40.8137 75.8199 40.7001C75.6863 40.4731 75.4686 40.3079 75.2139 40.2405C74.9593 40.1731 74.6883 40.2089 74.4599 40.3401C74.3504 40.3957 74.2368 40.4425 74.1199 40.4801C74.0549 40.361 74.0271 40.2252 74.0399 40.0901C74.0742 39.5992 74.2199 39.1225 74.466 38.6962C74.712 38.27 75.0519 37.9054 75.4599 37.6301ZM48.5999 84.3601C48.4822 84.3995 48.3683 84.4497 48.2599 84.5101C47.8464 84.7868 47.503 85.1557 47.2565 85.5878C47.0101 86.02 46.8675 86.5034 46.8399 87.0001C46.8288 87.1351 46.8566 87.2704 46.9199 87.3901C46.9199 87.3825 46.939 87.3763 46.9743 87.3648C47.0313 87.3463 47.1304 87.3141 47.2599 87.2401C47.3737 87.1678 47.501 87.1192 47.6341 87.0973C47.7672 87.0754 47.9033 87.0807 48.0343 87.1128C48.1653 87.1448 48.2884 87.2031 48.3963 87.284C48.5042 87.3649 48.5946 87.4668 48.6621 87.5836C48.7296 87.7004 48.7728 87.8296 48.7891 87.9635C48.8053 88.0973 48.7943 88.2331 48.7568 88.3627C48.7192 88.4922 48.6558 88.6128 48.5704 88.7172C48.485 88.8216 48.3794 88.9076 48.2599 88.9701C47.8511 89.224 47.3811 89.3623 46.8999 89.3701C46.5495 89.3725 46.2047 89.2829 45.8999 89.1101C45.552 88.884 45.2705 88.5694 45.0842 88.1986C44.898 87.8279 44.8136 87.4142 44.8399 87.0001C44.8679 86.1512 45.103 85.322 45.5248 84.5847C45.9466 83.8475 46.5423 83.2245 47.2599 82.7701C47.6063 82.5409 48.0075 82.4081 48.4223 82.3853C48.837 82.3624 49.2504 82.4504 49.6199 82.6401C49.9693 82.8647 50.252 83.179 50.4384 83.5502C50.6249 83.9213 50.7083 84.3357 50.6799 84.7501C50.6799 85.0153 50.5745 85.2697 50.387 85.4572C50.1995 85.6448 49.9451 85.7501 49.6799 85.7501C49.4147 85.7501 49.1603 85.6448 48.9728 85.4572C48.7853 85.2697 48.6799 85.0153 48.6799 84.7501C48.6927 84.6151 48.6649 84.4792 48.5999 84.3601Z" fill="#28CDCD"/>
</svg>
