<svg width="100" height="100" viewBox="0 0 100 100" fill="none" xmlns="http://www.w3.org/2000/svg">
<path fill-rule="evenodd" clip-rule="evenodd" d="M81.9013 14.6051C82.3739 15.2798 82.6318 16.0814 82.6413 16.9051C83.2213 26.1351 83.7813 35.9851 83.7813 45.7151C83.7813 50.6551 83.6513 55.7151 83.4013 60.7151C83.2613 63.5851 83.1213 65.9751 82.9613 68.2351C82.999 70.3187 82.7534 72.3977 82.2313 74.4151C80.9813 77.7051 77.9313 79.7551 75.2313 81.5651L74.0313 82.3851C70.7777 84.6868 67.4101 86.8228 63.9413 88.7851C57.9813 92.1851 51.7213 95.1451 45.6613 98.0051L44.5513 98.5251C44.1049 98.7741 43.6023 98.9049 43.0913 98.9051C42.9614 98.915 42.8311 98.915 42.7013 98.9051H42.5213L42.2413 98.8051C42.1217 98.7915 42.0061 98.7541 41.9013 98.6951L18.5813 86.1351L18.4813 86.0651C17.97 85.703 17.565 85.2106 17.3082 84.6391C17.0515 84.0676 16.9524 83.4378 17.0213 82.8151V27.8151C17.0402 26.5614 17.351 25.3294 17.929 24.2167C18.5071 23.1041 19.3364 22.1414 20.3513 21.4051L20.4413 21.3451L54.8413 1.51512C55.2514 1.2287 55.7295 1.05489 56.2279 1.01102C56.7262 0.96715 57.2274 1.05477 57.6813 1.26512L67.2013 6.44512L71.8113 8.94512L73.8113 10.0251H73.9813C74.1173 10.0779 74.2402 10.1598 74.3413 10.2651C76.2413 11.3251 78.1513 12.3251 80.0713 13.3251C80.7273 13.5778 81.3184 13.9742 81.8013 14.4851C81.8421 14.5182 81.8761 14.5589 81.9013 14.6051ZM77.8913 68.7151L81.0113 66.9051V66.9151C81.0613 66.1351 81.1113 65.3451 81.1613 64.5251L78.8813 65.8351C78.4435 66.131 78.0803 66.5242 77.82 66.984C77.5598 67.4437 77.4096 67.9576 77.3813 68.4851C77.373 68.6147 77.4044 68.7438 77.4713 68.8551C77.62 68.8404 77.7635 68.7926 77.8913 68.7151ZM77.8913 27.1651L81.1313 25.2751L81.0013 23.0951L78.8713 24.3351C78.433 24.6304 78.0694 25.0235 77.809 25.4834C77.5487 25.9433 77.3988 26.4574 77.3713 26.9851C77.3734 27.1007 77.4119 27.2127 77.4813 27.3051C77.6273 27.2925 77.768 27.2445 77.8913 27.1651ZM81.7413 45.8951V45.7351C81.7413 45.0351 81.7213 44.3251 81.6813 43.6151L79.7413 44.7351C79.3042 45.0246 78.9409 45.4122 78.6804 45.8672C78.42 46.3221 78.2696 46.8317 78.2413 47.3551C78.2308 47.4913 78.2622 47.6273 78.3313 47.7451C78.4765 47.729 78.6165 47.6812 78.7413 47.6051L81.7413 45.8951ZM55.8813 3.22512L21.4813 23.0551C20.733 23.6084 20.122 24.3264 19.6954 25.1535C19.2689 25.9806 19.0382 26.8947 19.0213 27.8251V36.0351L33.3713 44.3151V36.6151C33.3936 35.3595 33.7111 34.1267 34.2983 33.0166C34.8855 31.9065 35.7259 30.9502 36.7513 30.2251L70.7513 10.5951L66.2713 8.15512L56.7913 3.05512C56.6565 3.0021 56.5105 2.98437 56.367 3.00362C56.2235 3.02287 56.0873 3.07846 55.9713 3.16512L55.8813 3.22512ZM19.0113 82.8651C19.0162 82.905 19.0162 82.9453 19.0113 82.9851C18.9755 83.2528 19.0113 83.5252 19.1149 83.7746C19.2185 84.024 19.3863 84.2416 19.6013 84.4051L33.4713 91.8551V91.6751V78.6551V78.5951C33.4618 78.5288 33.4618 78.4615 33.4713 78.3951C33.4867 78.3304 33.5067 78.2669 33.5313 78.2051V78.1551L36.5313 72.9851V57.3051L33.5313 48.6051C33.4326 48.4528 33.3773 48.2765 33.3713 48.0951V46.6251L19.0113 38.3451V82.8651ZM45.9913 84.9851L42.8513 86.7951V86.8051C42.8317 87.1915 42.8145 87.5779 42.7974 87.9632C42.7795 88.3656 42.7617 88.7666 42.7413 89.1651L45.0013 87.8651C45.439 87.5693 45.8022 87.1761 46.0625 86.7163C46.3227 86.2565 46.4729 85.7427 46.5013 85.2151C46.5095 85.0855 46.4781 84.9565 46.4113 84.8451C46.2626 84.8598 46.119 84.9077 45.9913 84.9851ZM43.4813 65.7951H43.3713V67.0951V68.0951L45.7213 66.7951C46.1627 66.5055 46.5289 66.1151 46.7897 65.656C47.0505 65.197 47.1984 64.6826 47.2213 64.1551C47.2303 64.0223 47.1989 63.8898 47.1313 63.7751C46.9858 63.8023 46.8467 63.8565 46.7213 63.9351L43.4813 65.7951ZM42.6938 45.3645C42.7576 45.3492 42.8202 45.3293 42.8813 45.3051L46.1413 43.4151C46.2672 43.3415 46.4066 43.2939 46.5513 43.2751C46.6181 43.3865 46.6495 43.5155 46.6413 43.6451C46.6145 44.1717 46.4648 44.6846 46.2044 45.143C45.9439 45.6014 45.5799 45.9926 45.1413 46.2851L42.8213 47.5851C42.8166 47.5007 42.812 47.4161 42.8074 47.3312C42.7726 46.6937 42.7369 46.0404 42.6938 45.3645ZM73.5824 80.3499C73.7615 80.2299 73.9414 80.1093 74.1213 79.9851L74.2613 79.8905C76.6677 78.2639 79.3873 76.4257 80.2113 73.8851C80.5865 72.379 80.7977 70.8367 80.8413 69.2851L78.8413 70.4651C78.4151 70.7114 77.9334 70.8456 77.4413 70.8551C77.09 70.8545 76.7451 70.7614 76.4413 70.5851C76.0883 70.3538 75.8032 70.0328 75.6152 69.655C75.4272 69.2772 75.343 68.8562 75.3713 68.4351C75.4072 67.5706 75.6469 66.7268 76.071 65.9726C76.495 65.2184 77.0913 64.5751 77.8113 64.0951L81.1013 62.1951C81.1545 62.1908 81.208 62.1908 81.2613 62.1951C81.3413 61.6851 81.3413 61.2051 81.3413 60.6851C81.5513 56.5451 81.6913 52.3751 81.6913 48.2251L79.7613 49.3451C79.3411 49.5983 78.8617 49.7363 78.3713 49.7451C78.0209 49.7475 77.6761 49.6579 77.3713 49.4851C77.0093 49.2555 76.7155 48.9331 76.5203 48.5515C76.3251 48.1699 76.2356 47.743 76.2613 47.3151C76.2999 46.4572 76.5434 45.6209 76.9714 44.8763C77.3994 44.1317 77.9994 43.5004 78.7213 43.0351L81.6713 41.3251C81.6113 36.7051 81.4513 32.0951 81.2213 27.5351L78.8613 28.8951C78.4402 29.1558 77.9564 29.2975 77.4613 29.3051C77.1109 29.3075 76.7661 29.2179 76.4613 29.0451C76.1024 28.8186 75.8115 28.4991 75.6196 28.1205C75.4277 27.742 75.3419 27.3185 75.3713 26.8951C75.4208 26.0337 75.6731 25.1962 76.1075 24.4507C76.5419 23.7053 77.1462 23.0729 77.8713 22.6051L80.8713 20.8451C80.8333 20.2337 80.7977 19.62 80.7621 19.0084C80.7227 18.3295 80.6833 17.6532 80.6413 16.9851C80.667 16.5556 80.5661 16.1279 80.3513 15.7551C80.0667 15.4761 79.7258 15.2613 79.3513 15.1251H79.2413C77.1713 14.0551 75.0613 12.9351 73.0613 11.8251C72.8194 11.7925 72.574 11.8494 72.3713 11.9851L37.8013 31.9051C37.0592 32.45 36.4541 33.1602 36.0341 33.9795C35.6141 34.7987 35.3905 35.7045 35.3813 36.6251V45.8051C35.4219 45.9659 35.4219 46.1343 35.3813 46.2951V47.8051L38.5013 56.8051C38.5397 56.911 38.56 57.0225 38.5613 57.1351V73.2151C38.5594 73.3912 38.5111 73.5637 38.4213 73.7151L35.4213 78.8851V91.6751C35.4213 92.4751 35.6413 93.0751 35.9713 93.1951C36.0949 93.2409 36.2074 93.3125 36.3013 93.4051L40.3713 95.5951C40.3088 94.7973 40.3424 93.9949 40.4713 93.2051L40.7113 89.4951C40.8513 86.9951 40.9713 84.4851 41.0713 81.9951C41.2713 77.0751 41.3713 72.1651 41.3713 67.0751C41.3713 61.9851 41.2713 57.1751 41.1013 52.4351C41.0113 50.1951 40.8813 47.7751 40.7013 45.0251C40.2512 42.6866 40.2512 40.2837 40.7013 37.9451C40.9908 36.9131 41.53 35.9682 42.2712 35.1938C43.0124 34.4195 43.9328 33.8395 44.9513 33.5051C46.1232 33.1363 47.2748 32.7057 48.4013 32.2151C51.237 31.0447 54.0018 29.709 56.6813 28.2151C62.1258 25.4935 67.3397 22.3331 72.2713 18.7651L72.3713 18.7051C73.8082 17.8921 75.045 16.768 75.9913 15.4151C76.1438 15.1976 76.3764 15.0497 76.638 15.0037C76.8996 14.9578 77.1688 15.0176 77.3863 15.1701C77.6037 15.3226 77.7517 15.5553 77.7977 15.8169C77.8436 16.0785 77.7838 16.3476 77.6313 16.5651C76.516 18.1499 75.0605 19.4653 73.3713 20.4151C68.383 24.0593 63.1055 27.2901 57.5913 30.0751C54.8555 31.5663 52.0377 32.9017 49.1513 34.0751C47.9913 34.5751 46.7713 35.0251 45.5413 35.4151C44.8483 35.6419 44.2206 36.0333 43.7121 36.5558C43.2035 37.0783 42.8292 37.7163 42.6213 38.4151C42.3221 40.0105 42.258 41.6412 42.4313 43.2551L45.1413 41.6851C45.4845 41.4299 45.8948 41.2803 46.3217 41.2547C46.7487 41.229 47.1739 41.3284 47.5453 41.5406C47.9167 41.7528 48.2181 42.0687 48.4128 42.4496C48.6074 42.8304 48.6868 43.2598 48.6413 43.6851C48.6017 44.5456 48.3579 45.3843 47.9302 46.132C47.5025 46.8797 46.903 47.5149 46.1813 47.9851L42.9513 49.8251C42.963 50.0244 42.9758 50.2231 42.9886 50.4209C43.0302 51.0668 43.0713 51.7027 43.0713 52.3151C43.2313 55.9851 43.3713 59.6651 43.3713 63.4851L45.7213 62.1251C46.077 61.8872 46.4899 61.7488 46.9172 61.7242C47.3445 61.6996 47.7705 61.7897 48.1513 61.9851C48.5181 62.2181 48.8138 62.5476 49.0061 62.9373C49.1983 63.3271 49.2797 63.7622 49.2413 64.1951C49.2057 65.0565 48.9637 65.8968 48.5356 66.6451C48.1075 67.3934 47.5058 68.0279 46.7813 68.4951L43.5013 70.4051H43.3613C43.3313 74.3051 43.2513 78.2251 43.1013 82.0851C43.0898 82.3842 43.0709 82.6848 43.052 82.9858C43.0217 83.4696 42.9913 83.9542 42.9913 84.4351L44.9913 83.2551C45.3477 83.0222 45.7597 82.8884 46.185 82.8673C46.6103 82.8462 47.0335 82.9387 47.4113 83.1351C47.7668 83.3645 48.0545 83.6848 48.2444 84.0629C48.4343 84.441 48.5195 84.863 48.4913 85.2851C48.4457 86.1431 48.2005 86.9786 47.7752 87.7251C47.3498 88.4716 46.7561 89.1085 46.0413 89.5851L42.7513 91.4751C42.6969 91.5011 42.6399 91.5212 42.5813 91.5351L42.4713 93.3851V93.4951C42.3012 94.4409 42.3012 95.4094 42.4713 96.3551C42.5144 96.4927 42.5867 96.6194 42.6834 96.7264C42.7801 96.8334 42.8987 96.9183 43.0313 96.9751C43.2407 96.9889 43.4495 96.9402 43.6313 96.8351L44.8113 96.2751C50.8313 93.4351 57.0613 90.4951 62.9413 87.1351C66.3581 85.2085 69.6726 83.1056 72.8713 80.8351C73.1057 80.6693 73.3433 80.5101 73.5824 80.3499ZM68.7286 36.7151C69.1596 36.6922 69.5888 36.7855 69.9714 36.9852C70.404 37.2793 70.7499 37.684 70.9732 38.157C71.1965 38.63 71.2891 39.1542 71.2414 39.6752V46.7552C71.2152 47.7354 70.9634 48.6964 70.5056 49.5636C70.0477 50.4307 69.3961 51.1807 68.6014 51.7552L68.5214 51.8152L55.4414 59.3752C55.0159 59.6242 54.5343 59.7617 54.0414 59.7752C53.6668 59.7736 53.2988 59.6773 52.9714 59.4952C52.5434 59.2025 52.2017 58.8004 51.9818 58.3308C51.762 57.8613 51.6721 57.3413 51.7214 56.8252V49.6252C51.7502 48.6465 52.0021 47.6874 52.4579 46.8208C52.9137 45.9543 53.5613 45.2033 54.3514 44.6252L54.4414 44.5652L67.5214 37.1152C67.8808 36.8761 68.2977 36.7379 68.7286 36.7151ZM64.7614 42.2252L55.2214 47.7352V51.6852L64.7614 46.1752V42.2252ZM54.4714 57.6852L67.4714 50.1552C68.0032 49.7695 68.4412 49.269 68.7528 48.6907C69.0645 48.1124 69.2417 47.4714 69.2714 46.8152V39.6752C69.2714 39.0952 69.0614 38.7552 69.0114 38.7252C68.9614 38.6952 68.8014 38.7152 68.5614 38.8552L66.6314 39.9552C66.7354 40.1161 66.7909 40.3035 66.7914 40.4952V46.7552C66.7921 46.9314 66.7463 47.1046 66.6585 47.2574C66.5706 47.4102 66.444 47.5371 66.2914 47.6252L54.7514 54.2852C54.597 54.3665 54.4259 54.411 54.2514 54.4152C54.0768 54.4125 53.9053 54.3679 53.7514 54.2852V56.8752C53.7514 57.5152 53.9514 57.7652 54.0114 57.8052C54.0714 57.8452 54.2414 57.8252 54.4714 57.6852Z" fill="#28CDCD"/>
</svg>
